<?xml version="1.0" encoding="utf-8"?>
<!-- Generator: Adobe Illustrator 19.2.1, SVG Export Plug-In . SVG Version: 6.00 Build 0)  -->
<svg version="1.1" id="Layer_1" xmlns="http://www.w3.org/2000/svg" xmlns:xlink="http://www.w3.org/1999/xlink" x="0px" y="0px"
	 viewBox="0 0 500.4 251" style="enable-background:new 0 0 500.4 251;" xml:space="preserve">
<style type="text/css">
	.st0{fill:#FFFFFF;stroke:#000333;stroke-miterlimit:10;}
	.st1{fill:#FFFFFF;stroke:#000000;stroke-miterlimit:10;}
</style>
<polygon class="st0" points="5.8,0.8 88.4,0.8 88.4,237 5.8,237 5.8,2.1 "/>
<polyline class="st0" points="5.3,1.8 6.4,4.5 6.4,5.9 6.8,8.3 8.7,10.9 8.7,17.4 8.7,24.3 7,24.3 7,25.5 8.1,28.1 46.6,28.1 "/>
<polyline class="st0" points="87.9,1.8 86.8,4.5 86.8,5.9 86.3,8.3 84.5,10.9 84.5,17.4 84.5,24.3 86.2,24.3 86.2,25.5 85.1,28.1 
	46.6,28.1 "/>
<polygon class="st0" points="6.4,5.9 86.8,5.9 86.3,8.3 6.8,8.3 "/>
<polygon class="st0" points="26.4,8.6 29.6,8.6 28.4,11 28.4,25.7 27.4,26.4 27.4,27.4 26.4,27.4 25.5,27.4 25.5,26.4 24.5,25.7 
	24.5,11 23.3,8.6 "/>
<polyline class="st0" points="14.7,8.3 13,11 13,25.7 11.9,26.7 11.9,27.4 9.9,27.4 9.9,26.4 8.6,25.2 8.7,24.3 "/>
<polyline class="st0" points="78.4,8.1 80.1,10.8 80.1,25.5 81.3,26.4 81.3,27.2 83.3,27.2 83.3,26.2 84.5,24.9 84.4,24.1 "/>
<polygon class="st0" points="34.1,8.6 37.2,8.6 36,11 36,25.7 35,26.4 35,27.4 34.1,27.4 33.1,27.4 33.1,26.4 32.1,25.7 32.1,11 
	30.9,8.6 "/>
<polygon class="st0" points="54,8.6 57.2,8.6 56,11 56,25.7 55,26.4 55,27.4 54,27.4 53.1,27.4 53.1,26.4 52.1,25.7 52.1,11 
	50.9,8.6 "/>
<polygon class="st0" points="61.6,8.6 64.8,8.6 63.5,11 63.5,25.7 62.5,26.4 62.5,27.4 61.6,27.4 60.6,27.4 60.6,26.4 59.7,25.7 
	59.7,11 58.4,8.6 "/>
<polygon class="st0" points="25.9,205.2 42.4,205.2 42.2,202.7 41.5,202.2 41.6,196.3 42.6,196.3 42.5,195.3 41.2,193.1 41.5,166.6 
	42.9,166.6 42.9,162.2 41.4,162.2 41.4,161.4 42.1,160.5 42.1,159.9 41.5,159.9 41.7,156.3 42.6,155 43.5,155 44.5,151.4 
	25.9,151.4 7.2,151.4 8.2,155 9.1,155 10,156.3 10.2,159.9 9.6,159.9 9.6,160.5 10.3,161.4 10.3,162.2 8.8,162.2 8.8,166.6 
	10.2,166.6 10.5,193.1 9.2,195.3 9.1,196.3 10.1,196.3 10.2,202.2 9.5,202.7 9.3,205.2 "/>
<polyline class="st0" points="25.9,162.4 15.8,162.4 15.8,166.4 14.7,166.4 14.7,193.3 16.5,196 15.3,196 15.3,202.1 15.8,202.7 
	15.8,205.2 25.9,205.2 "/>
<polyline class="st0" points="25.9,162.4 35.9,162.4 35.9,166.4 37,166.4 37,193.3 35.2,196 36.4,196 36.4,202.1 35.9,202.7 
	35.9,205.2 25.9,205.2 "/>
<rect x="11.6" y="156.4" class="st0" width="28.1" height="2.6"/>
<polyline class="st0" points="42.5,205.4 42.5,206.2 42.1,206.2 42.1,207.2 42.5,207.2 42.5,207.9 42.1,207.9 42.1,209.5 43,209.5 
	43,210.3 51.2,210.3 51.2,211.2 50.2,212.2 50.2,213.8 49.6,213.8 49.6,214.8 50.3,215.6 49.4,215.6 49.4,228.6 50.5,228.6 
	50.5,229.2 50.3,229.2 50.4,229.8 51.2,230.9 51.2,236.8 25.9,236.8 "/>
<polyline class="st0" points="9.2,205.4 9.2,206.2 9.6,206.2 9.2,207.2 9.2,207.9 9.6,207.9 9.6,209.5 8.7,209.5 8.7,210.3 
	0.5,210.3 0.5,211.2 1.5,212.2 1.5,213.8 2.1,213.8 2.1,214.8 1.4,215.6 2.3,215.6 2.3,228.6 1.2,228.6 1.2,229.2 1.4,229.2 
	1.3,229.8 0.5,230.9 0.5,236.8 25.9,236.8 "/>
<path class="st0" d="M42.1,207.2"/>
<line class="st0" x1="9.2" y1="207.2" x2="42.1" y2="207.2"/>
<line class="st0" x1="42.1" y1="207.9" x2="9.6" y2="207.9"/>
<line class="st0" x1="42.1" y1="209.5" x2="9.6" y2="209.5"/>
<polyline class="st0" points="8.7,210.3 10.9,210.3 43,210.3 "/>
<polyline class="st0" points="10.9,210.3 10.9,211.7 9.9,212.5 9.9,213.7 9.2,214.5 10.1,215.6 9.2,215.6 9.6,228.4 10.1,228.4 
	10.1,229.1 9.6,229.1 10.4,230.6 10.4,236.8 "/>
<polyline class="st0" points="40.4,210.3 40.4,211.7 41.4,212.5 41.4,213.7 42.1,214.5 41.2,215.6 42.1,215.6 41.7,228.4 
	41.2,228.4 41.2,229.1 41.7,229.1 40.9,230.6 40.9,236.8 "/>
<line class="st0" x1="9.6" y1="215" x2="41.7" y2="215"/>
<line class="st0" x1="42.1" y1="214.5" x2="9.2" y2="214.5"/>
<line class="st0" x1="9.9" y1="212.5" x2="41.4" y2="212.5"/>
<line class="st0" x1="40.4" y1="211.7" x2="10.9" y2="211.7"/>
<line class="st0" x1="9.3" y1="217.4" x2="42" y2="217.4"/>
<line class="st0" x1="42" y1="216.8" x2="9.3" y2="216.8"/>
<line class="st0" x1="9.4" y1="220" x2="41.9" y2="220"/>
<line class="st0" x1="41.9" y1="219.4" x2="9.2" y2="219.4"/>
<line class="st0" x1="9.6" y1="222.6" x2="41.8" y2="222.6"/>
<line class="st0" x1="41.8" y1="222" x2="9.2" y2="221.7"/>
<line class="st0" x1="9.6" y1="225.5" x2="41.7" y2="225.5"/>
<line class="st0" x1="41.8" y1="224.8" x2="9.5" y2="224.6"/>
<line class="st0" x1="9.6" y1="227.3" x2="41.7" y2="227.3"/>
<line class="st0" x1="41.2" y1="228.4" x2="10.1" y2="228.4"/>
<line class="st0" x1="10.4" y1="230.6" x2="40.9" y2="230.6"/>
<line class="st0" x1="40.9" y1="231.6" x2="10.4" y2="231.6"/>
<line class="st0" x1="10.4" y1="233.1" x2="40.9" y2="233.1"/>
<line class="st0" x1="40.9" y1="234.4" x2="10.4" y2="234.4"/>
<path class="st0" d="M29.9,136.6h-2.8l-0.1-2l-7-0.1l-7,0.1l-0.1,2h-2.8l-0.1-1.9H9.7l0-0.6l-0.6-0.7l0-0.8h0.9l-0.2-28.8h0.3v-0.4
	H9.9l0.1-2H9.7l-0.5-0.6l0.1-1.3H8.6l0-0.8l-1-1.9h24.8l-1,1.9l0,0.8h-0.6l0.1,1.3l-0.5,0.6h-0.3l0.1,2H30v0.4h0.3l-0.2,28.8H31
	l0,0.8l-0.6,0.7l0,0.6H30L29.9,136.6z M27.4,136.5h2.3l0.1-1.9h0.4l0-0.5l0.6-0.7l0-0.5h-0.9l0.2-28.8h-0.3v-0.8H30l-0.1-2h0.5
	l0.4-0.4l-0.1-1.5h0.6l0-0.6l0.9-1.6H8l0.9,1.6l0,0.6h0.6l-0.1,1.5l0.4,0.4h0.5l-0.1,2h0.3v0.8h-0.3l0.2,28.8H9.4l0,0.5L10,134
	l0,0.5h0.4l0.1,1.9h2.3l0.1-2l7.2-0.1l7.2,0.1L27.4,136.5z"/>
<path class="st0" d="M27,132.2H13.2l0-0.5h-0.3l0-0.1l-0.2-29h0.3V102h14.3v0.6h0.3l-0.2,29.1H27L27,132.2z M13.4,132h13.3l0-0.5
	h0.3l0.2-28.7H27v-0.6H13.1v0.6h-0.3l0.2,28.7h0.3L13.4,132z"/>
<path class="st0" d="M75.9,198.8h-2.8l-0.1-2l-7-0.1l-7,0.1l-0.1,2h-2.8l-0.1-1.9h-0.4l0-0.6l-0.6-0.7l0-0.8h0.9L55.9,166h0.3v-0.4
	h-0.3l0.1-2h-0.3l-0.5-0.6l0.1-1.3h-0.6l0-0.8l-1-1.9h24.8l-1,1.9l0,0.8h-0.6l0.1,1.3l-0.5,0.6h-0.3l0.1,2H76v0.4h0.3L76,194.8H77
	l0,0.8l-0.6,0.7l0,0.6H76L75.9,198.8z M73.3,198.6h2.3l0.1-1.9h0.4l0-0.5l0.6-0.7l0-0.5h-0.9l0.2-28.8h-0.3v-0.8H76l-0.1-2h0.5
	l0.4-0.4l-0.1-1.5h0.6l0-0.6l0.9-1.6H54l0.9,1.6l0,0.6h0.6l-0.1,1.5l0.4,0.4h0.5l-0.1,2h0.3v0.8h-0.3l0.2,28.8h-0.9l0,0.5l0.6,0.7
	l0,0.5h0.4l0.1,1.9h2.3l0.1-2l7.2-0.1l7.2,0.1L73.3,198.6z"/>
<path class="st0" d="M72.9,195.1H59.2l0-0.5h-0.3l0-0.1l-0.2-29h0.3v-0.6h14.3v0.6h0.3l-0.2,29.1H73L72.9,195.1z M59.4,194.9h13.3
	l0-0.5h0.3l0.2-28.7H73v-0.6H59.1v0.6h-0.3l0.2,28.7h0.3L59.4,194.9z"/>
<path class="st0" d="M56.7,136.8h-2.8l-0.1-2l-7-0.1l-7,0.1l-0.1,2H37l-0.1-1.9h-0.4l0-0.6l-0.6-0.7l0-0.8h0.9L36.7,104h0.3v-0.4
	h-0.3l0.1-2h-0.3L36,101l0.1-1.3h-0.6l0-0.8l-1-1.9h24.8l-1,1.9l0,0.8h-0.6l0.1,1.3l-0.5,0.6h-0.3l0.1,2h-0.3v0.4H57l-0.2,28.8h0.9
	l0,0.8l-0.6,0.7l0,0.6h-0.4L56.7,136.8z M54.1,136.6h2.3l0.1-1.9H57l0-0.5l0.6-0.7l0-0.5h-0.9l0.2-28.8h-0.3v-0.8h0.3l-0.1-2h0.5
	l0.4-0.4l-0.1-1.5h0.6l0-0.6l0.9-1.6H34.8l0.9,1.6l0,0.6h0.6l-0.1,1.5l0.4,0.4h0.5l-0.1,2h0.3v0.8h-0.3l0.2,28.8h-0.9l0,0.5l0.6,0.7
	l0,0.5h0.4l0.1,1.9h2.3l0.1-2l7.2-0.1l7.2,0.1L54.1,136.6z"/>
<path class="st0" d="M53.7,132H40l0-0.5h-0.3l0-0.1l-0.2-29h0.3v-0.6H54v0.6h0.3l-0.2,29.1h-0.3L53.7,132z M40.2,131.8h13.3l0-0.5
	h0.3l0.2-28.7h-0.3V102H39.9v0.6h-0.3l0.2,28.7h0.3L40.2,131.8z"/>
<path class="st0" d="M83.9,136.6h-2.8l-0.1-2l-7-0.1l-7,0.1l-0.1,2h-2.8l-0.1-1.9h-0.4l0-0.6l-0.6-0.7l0-0.8H64l-0.2-28.8h0.3v-0.4
	h-0.3l0.1-2h-0.3l-0.5-0.6l0.1-1.3h-0.6l0-0.8l-1-1.9h24.8l-1,1.9l0,0.8h-0.6l0.1,1.3l-0.5,0.6h-0.3l0.1,2H84v0.4h0.3L84,132.7H85
	l0,0.8l-0.6,0.7l0,0.6H84L83.9,136.6z M81.3,136.5h2.3l0.1-1.9h0.4l0-0.5l0.6-0.7l0-0.5h-0.9l0.2-28.8h-0.3v-0.8H84l-0.1-2h0.5
	l0.4-0.4l-0.1-1.5h0.6l0-0.6l0.9-1.6H62l0.9,1.6l0,0.6h0.6l-0.1,1.5l0.4,0.4h0.5l-0.1,2h0.3v0.8h-0.3l0.2,28.8h-0.9l0,0.5l0.6,0.7
	l0,0.5h0.4l0.1,1.9h2.3l0.1-2l7.2-0.1l7.2,0.1L81.3,136.5z"/>
<path class="st0" d="M80.9,132H67.2l0-0.5h-0.3l0-0.1l-0.2-29h0.3v-0.6h14.3v0.6h0.3l-0.2,29.1h-0.3L80.9,132z M67.4,131.8h13.3
	l0-0.5h0.3l0.2-28.7H81V102H67.1v0.6h-0.3l0.2,28.7h0.3L67.4,131.8z"/>
<path class="st0" d="M29.9,83.2h-2.8l-0.1-2l-7-0.1l-7,0.1l-0.1,2h-2.8l-0.1-1.9H9.7l0-0.6L9.1,80l0-0.8h0.9L9.9,50.5h0.3v-0.4H9.9
	l0.1-2H9.7l-0.5-0.6l0.1-1.3H8.6l0-0.8l-1-1.9h24.8l-1,1.9l0,0.8h-0.6l0.1,1.3l-0.5,0.6h-0.3l0.1,2H30v0.4h0.3l-0.2,28.8H31l0,0.8
	l-0.6,0.7l0,0.6H30L29.9,83.2z M27.4,83.1h2.3l0.1-1.9h0.4l0-0.5l0.6-0.7l0-0.5h-0.9L30,50.7h-0.3v-0.8H30l-0.1-2h0.5l0.4-0.4
	L30.7,46h0.6l0-0.6l0.9-1.6H8l0.9,1.6l0,0.6h0.6l-0.1,1.5l0.4,0.4h0.5l-0.1,2h0.3v0.8h-0.3l0.2,28.8H9.4l0,0.5l0.6,0.7l0,0.5h0.4
	l0.1,1.9h2.3l0.1-2l7.2-0.1l7.2,0.1L27.4,83.1z"/>
<path class="st0" d="M27,78.8H13.2l0-0.5h-0.3l0-0.1l-0.2-29h0.3v-0.6h14.3v0.6h0.3l-0.2,29.1H27L27,78.8z M13.4,78.6h13.3l0-0.5
	h0.3l0.2-28.7H27v-0.6H13.1v0.6h-0.3l0.2,28.7h0.3L13.4,78.6z"/>
<path class="st0" d="M56.7,83.4h-2.8l-0.1-2l-7-0.1l-7,0.1l-0.1,2H37l-0.1-1.9h-0.4l0-0.6l-0.6-0.7l0-0.8h0.9l-0.2-28.8h0.3v-0.4
	h-0.3l0.1-2h-0.3L36,47.6l0.1-1.3h-0.6l0-0.8l-1-1.9h24.8l-1,1.9l0,0.8h-0.6l0.1,1.3l-0.5,0.6h-0.3l0.1,2h-0.3v0.4H57l-0.2,28.8h0.9
	l0,0.8l-0.6,0.7l0,0.6h-0.4L56.7,83.4z M54.1,83.2h2.3l0.1-1.9H57l0-0.5l0.6-0.7l0-0.5h-0.9l0.2-28.8h-0.3V50h0.3l-0.1-2h0.5
	l0.4-0.4l-0.1-1.5h0.6l0-0.6l0.9-1.6H34.8l0.9,1.6l0,0.6h0.6l-0.1,1.5l0.4,0.4h0.5l-0.1,2h0.3v0.8h-0.3l0.2,28.8h-0.9l0,0.5l0.6,0.7
	l0,0.5h0.4l0.1,1.9h2.3l0.1-2l7.2-0.1l7.2,0.1L54.1,83.2z"/>
<path class="st0" d="M53.7,78.6H40l0-0.5h-0.3l0-0.1l-0.2-29h0.3v-0.6H54V49h0.3l-0.2,29.1h-0.3L53.7,78.6z M40.2,78.4h13.3l0-0.5
	h0.3l0.2-28.7h-0.3v-0.6H39.9v0.6h-0.3l0.2,28.7h0.3L40.2,78.4z"/>
<path class="st0" d="M83.9,83.2h-2.8l-0.1-2l-7-0.1l-7,0.1l-0.1,2h-2.8l-0.1-1.9h-0.4l0-0.6L63.1,80l0-0.8H64l-0.2-28.8h0.3v-0.4
	h-0.3l0.1-2h-0.3l-0.5-0.6l0.1-1.3h-0.6l0-0.8l-1-1.9h24.8l-1,1.9l0,0.8h-0.6l0.1,1.3l-0.5,0.6h-0.3l0.1,2H84v0.4h0.3L84,79.3H85
	l0,0.8l-0.6,0.7l0,0.6H84L83.9,83.2z M81.3,83.1h2.3l0.1-1.9h0.4l0-0.5l0.6-0.7l0-0.5h-0.9L84,50.7h-0.3v-0.8H84l-0.1-2h0.5l0.4-0.4
	L84.6,46h0.6l0-0.6l0.9-1.6H62l0.9,1.6l0,0.6h0.6l-0.1,1.5l0.4,0.4h0.5l-0.1,2h0.3v0.8h-0.3l0.2,28.8h-0.9l0,0.5l0.6,0.7l0,0.5h0.4
	l0.1,1.9h2.3l0.1-2L74,81l7.2,0.1L81.3,83.1z"/>
<path class="st0" d="M80.9,78.6H67.2l0-0.5h-0.3l0-0.1l-0.2-29h0.3v-0.6h14.3V49h0.3l-0.2,29.1h-0.3L80.9,78.6z M67.4,78.4h13.3
	l0-0.5h0.3l0.2-28.7H81v-0.6H67.1v0.6h-0.3L67,77.9h0.3L67.4,78.4z"/>
<polygon class="st0" points="87.8,0.6 170.3,0.6 170.3,236.7 87.8,236.7 87.8,1.9 "/>
<polyline class="st0" points="87.8,1.6 88.8,4.2 88.8,5.7 89.3,8.1 91.1,10.7 91.1,17.1 91.1,24.1 89.5,24.1 89.5,25.2 90.6,27.9 
	129.1,27.9 "/>
<polyline class="st0" points="170.3,1.6 169.3,4.2 169.3,5.7 168.8,8.1 167,10.7 167,17.1 167,24.1 168.7,24.1 168.7,25.2 
	167.6,27.9 129.1,27.9 "/>
<polygon class="st0" points="88.8,5.7 169.3,5.7 168.8,8.1 89.3,8.1 "/>
<polygon class="st0" points="108.9,8.4 112.1,8.4 110.8,10.8 110.8,25.5 109.9,26.2 109.9,27.2 108.9,27.2 107.9,27.2 107.9,26.2 
	107,25.5 107,10.8 105.7,8.4 "/>
<polyline class="st0" points="97.2,8.1 95.5,10.8 95.5,25.5 94.3,26.4 94.3,27.2 92.3,27.2 92.3,26.2 91.1,24.9 91.1,24.1 "/>
<polyline class="st0" points="160.8,7.8 162.6,10.5 162.6,25.3 163.7,26.2 163.7,27 165.7,27 165.7,26 167,24.7 166.9,23.9 "/>
<polygon class="st0" points="116.5,8.4 119.7,8.4 118.5,10.8 118.5,25.5 117.5,26.2 117.5,27.2 116.5,27.2 115.6,27.2 115.6,26.2 
	114.6,25.5 114.6,10.8 113.3,8.4 "/>
<polygon class="st0" points="136.5,8.4 139.7,8.4 138.4,10.8 138.4,25.5 137.5,26.2 137.5,27.2 136.5,27.2 135.5,27.2 135.5,26.2 
	134.6,25.5 134.6,10.8 133.3,8.4 "/>
<polygon class="st0" points="144.1,8.4 147.2,8.4 146,10.8 146,25.5 145,26.2 145,27.2 144.1,27.2 143.1,27.2 143.1,26.2 
	142.1,25.5 142.1,10.8 140.9,8.4 "/>
<polygon class="st0" points="108.3,205 124.9,205 124.7,202.4 123.9,202 124.1,196 125.1,196 125,195.1 123.7,192.9 123.9,166.4 
	125.3,166.4 125.3,162 123.9,162 123.9,161.2 124.5,160.2 124.6,159.7 124,159.7 124.2,156.1 125.1,154.8 125.9,154.8 127,151.2 
	108.3,151.2 89.7,151.2 90.7,154.8 91.6,154.8 92.5,156.1 92.6,159.7 92,159.7 92.1,160.2 92.8,161.2 92.8,162 91.3,162 91.3,166.4 
	92.7,166.4 92.9,192.9 91.7,195.1 91.6,196 92.6,196 92.7,202 92,202.4 91.7,205 "/>
<polyline class="st0" points="108.3,162.1 98.3,162.1 98.3,166.1 97.2,166.1 97.2,193 99,195.7 97.8,195.7 97.8,201.8 98.3,202.4 
	98.3,205 108.3,205 "/>
<polyline class="st0" points="108.3,162.1 118.3,162.1 118.3,166.1 119.5,166.1 119.5,193 117.7,195.7 118.9,195.7 118.9,201.8 
	118.3,202.4 118.3,205 108.3,205 "/>
<rect x="94.1" y="156.2" class="st0" width="28.1" height="2.6"/>
<polyline class="st0" points="124.9,205.2 124.9,205.9 124.5,205.9 124.5,207 124.9,207 124.9,207.6 124.5,207.6 124.5,209.2 
	125.5,209.2 125.5,210 133.7,210 133.7,211 132.6,212 132.7,213.5 132.1,213.5 132.1,214.5 132.8,215.4 131.9,215.4 131.9,228.3 
	133,228.3 133,229 132.8,229 132.9,229.6 133.7,230.7 133.7,236.6 108.3,236.6 "/>
<polyline class="st0" points="91.7,205.2 91.7,205.9 92.1,205.9 91.7,207 91.7,207.6 92.1,207.6 92.1,209.2 91.1,209.2 91.1,210 
	83,210 83,211 84,212 84,213.5 84.6,213.5 84.6,214.5 83.9,215.4 84.8,215.4 84.8,228.3 83.6,228.3 83.7,229 83.9,229 83.8,229.6 
	83,230.7 83,236.6 108.3,236.6 "/>
<path class="st0" d="M124.5,207"/>
<line class="st0" x1="91.7" y1="207" x2="124.5" y2="207"/>
<line class="st0" x1="124.5" y1="207.6" x2="92.1" y2="207.6"/>
<line class="st0" x1="124.5" y1="209.2" x2="92.1" y2="209.2"/>
<polyline class="st0" points="91.1,210 93.4,210 125.5,210 "/>
<polyline class="st0" points="93.4,210 93.4,211.5 92.4,212.2 92.4,213.4 91.7,214.2 92.6,215.3 91.7,215.3 92.1,228.1 92.6,228.1 
	92.6,228.9 92.1,228.9 92.9,230.3 92.9,236.6 "/>
<polyline class="st0" points="122.8,210 122.8,211.5 123.8,212.2 123.8,213.4 124.5,214.2 123.7,215.3 124.5,215.3 124.1,228.1 
	123.7,228.1 123.7,228.9 124.1,228.9 123.3,230.3 123.4,236.6 "/>
<line class="st0" x1="92.1" y1="214.8" x2="124.1" y2="214.8"/>
<line class="st0" x1="124.5" y1="214.2" x2="91.7" y2="214.2"/>
<line class="st0" x1="92.4" y1="212.2" x2="123.8" y2="212.2"/>
<line class="st0" x1="122.8" y1="211.5" x2="93.4" y2="211.5"/>
<line class="st0" x1="91.8" y1="217.2" x2="124.5" y2="217.2"/>
<line class="st0" x1="124.5" y1="216.5" x2="91.8" y2="216.5"/>
<line class="st0" x1="91.8" y1="219.8" x2="124.4" y2="219.8"/>
<line class="st0" x1="124.4" y1="219.1" x2="91.7" y2="219.1"/>
<line class="st0" x1="92.1" y1="222.4" x2="124.3" y2="222.4"/>
<line class="st0" x1="124.3" y1="221.8" x2="91.7" y2="221.5"/>
<line class="st0" x1="92.1" y1="225.2" x2="124.1" y2="225.2"/>
<line class="st0" x1="124.2" y1="224.6" x2="92" y2="224.3"/>
<line class="st0" x1="92.1" y1="227" x2="124.1" y2="227"/>
<line class="st0" x1="123.7" y1="228.1" x2="92.6" y2="228.1"/>
<line class="st0" x1="92.9" y1="230.3" x2="123.3" y2="230.3"/>
<line class="st0" x1="123.3" y1="231.3" x2="92.9" y2="231.3"/>
<line class="st0" x1="92.9" y1="232.9" x2="123.3" y2="232.9"/>
<line class="st0" x1="123.3" y1="234.2" x2="92.9" y2="234.2"/>
<path class="st0" d="M112.4,136.4h-2.8l-0.1-2l-7-0.1l-7,0.1l-0.1,2h-2.8l-0.1-1.9h-0.4l0-0.6l-0.6-0.7l0-0.8h0.9l-0.2-28.8h0.3
	v-0.4h-0.3l0.1-2h-0.3l-0.5-0.6l0.1-1.3h-0.6l0-0.8l-1-1.9h24.8l-1,1.9l0,0.8h-0.6l0.1,1.3l-0.5,0.6h-0.3l0.1,2h-0.3v0.4h0.3
	l-0.2,28.8h0.9l0,0.8l-0.6,0.7l0,0.6h-0.4L112.4,136.4z M109.8,136.2h2.3l0.1-1.9h0.4l0-0.5l0.6-0.7l0-0.5h-0.9l0.2-28.8h-0.3v-0.8
	h0.3l-0.1-2h0.5l0.4-0.4l-0.1-1.5h0.6l0-0.6l0.9-1.6H90.5l0.9,1.6l0,0.6H92l-0.1,1.5l0.4,0.4h0.5l-0.1,2h0.3v0.8h-0.3l0.2,28.8h-0.9
	l0,0.5l0.6,0.7l0,0.5h0.4l0.1,1.9h2.3l0.1-2l7.2-0.1l7.2,0.1L109.8,136.2z"/>
<path class="st0" d="M109.4,132H95.7l0-0.5h-0.3l0-0.1l-0.2-29h0.3v-0.6h14.3v0.6h0.3l-0.2,29.1h-0.3L109.4,132z M95.9,131.8h13.3
	l0-0.5h0.3l0.2-28.7h-0.3V102H95.6v0.6h-0.3l0.2,28.7h0.3L95.9,131.8z"/>
<path class="st0" d="M158.4,198.5h-2.8l-0.1-2l-7-0.1l-7,0.1l-0.1,2h-2.8l-0.1-1.9h-0.4l0-0.6l-0.6-0.7l0-0.8h0.9l-0.2-28.8h0.3
	v-0.4h-0.3l0.1-2h-0.3l-0.5-0.6l0.1-1.3h-0.6l0-0.8l-1-1.9h24.8l-1,1.9l0,0.8h-0.6l0.1,1.3l-0.5,0.6h-0.3l0.1,2h-0.3v0.4h0.3
	l-0.2,28.8h0.9l0,0.8l-0.6,0.7l0,0.6h-0.4L158.4,198.5z M155.8,198.3h2.3l0.1-1.9h0.4l0-0.5l0.6-0.7l0-0.5h-0.9l0.2-28.8h-0.3v-0.8
	h0.3l-0.1-2h0.5l0.4-0.4l-0.1-1.5h0.6l0-0.6l0.9-1.6h-24.1l0.9,1.6l0,0.6h0.6l-0.1,1.5l0.4,0.4h0.5l-0.1,2h0.3v0.8h-0.3l0.2,28.8
	h-0.9l0,0.5l0.6,0.7l0,0.5h0.4l0.1,1.9h2.3l0.1-2l7.2-0.1l7.2,0.1L155.8,198.3z"/>
<path class="st0" d="M155.4,194.8h-13.7l0-0.5h-0.3l0-0.1l-0.2-29h0.3v-0.6h14.3v0.6h0.3l-0.2,29.1h-0.3L155.4,194.8z M141.9,194.6
	h13.3l0-0.5h0.3l0.2-28.7h-0.3v-0.6h-13.9v0.6h-0.3l0.2,28.7h0.3L141.9,194.6z"/>
<path class="st0" d="M139.2,136.5h-2.8l-0.1-2l-7-0.1l-7,0.1l-0.1,2h-2.8l-0.1-1.9H119l0-0.6l-0.6-0.7l0-0.8h0.9l-0.2-28.8h0.3v-0.4
	h-0.3l0.1-2h-0.3l-0.5-0.6l0.1-1.3h-0.6l0-0.8l-1-1.9h24.8l-1,1.9l0,0.8h-0.6l0.1,1.3l-0.5,0.6h-0.3l0.1,2h-0.3v0.4h0.3l-0.2,28.8
	h0.9l0,0.8l-0.6,0.7l0,0.6h-0.4L139.2,136.5z M136.6,136.4h2.3l0.1-1.9h0.4l0-0.5l0.6-0.7l0-0.5h-0.9l0.2-28.8H139v-0.8h0.3l-0.1-2
	h0.5l0.4-0.4l-0.1-1.5h0.6l0-0.6l0.9-1.6h-24.1l0.9,1.6l0,0.6h0.6l-0.1,1.5l0.4,0.4h0.5l-0.1,2h0.3v0.8h-0.3l0.2,28.8h-0.9l0,0.5
	l0.6,0.7l0,0.5h0.4l0.1,1.9h2.3l0.1-2l7.2-0.1l7.2,0.1L136.6,136.4z"/>
<path class="st0" d="M136.2,131.8h-13.7l0-0.5h-0.3l0-0.1l-0.2-29h0.3v-0.6h14.3v0.6h0.3l-0.2,29.1h-0.3L136.2,131.8z M122.7,131.6
	H136l0-0.5h0.3l0.2-28.7h-0.3v-0.6h-13.9v0.6h-0.3l0.2,28.7h0.3L122.7,131.6z"/>
<path class="st0" d="M166.3,136.4h-2.8l-0.1-2l-7-0.1l-7,0.1l-0.1,2h-2.8l-0.1-1.9h-0.4l0-0.6l-0.6-0.7l0-0.8h0.9l-0.2-28.8h0.3
	v-0.4h-0.3l0.1-2h-0.3l-0.5-0.6l0.1-1.3h-0.6l0-0.8l-1-1.9h24.8l-1,1.9l0,0.8h-0.6l0.1,1.3l-0.5,0.6h-0.3l0.1,2h-0.3v0.4h0.3
	l-0.2,28.8h0.9l0,0.8l-0.6,0.7l0,0.6h-0.4L166.3,136.4z M163.8,136.2h2.3l0.1-1.9h0.4l0-0.5l0.6-0.7l0-0.5h-0.9l0.2-28.8h-0.3v-0.8
	h0.3l-0.1-2h0.5l0.4-0.4l-0.1-1.5h0.6l0-0.6l0.9-1.6h-24.1l0.9,1.6l0,0.6h0.6l-0.1,1.5l0.4,0.4h0.5l-0.1,2h0.3v0.8h-0.3l0.2,28.8
	h-0.9l0,0.5l0.6,0.7l0,0.5h0.4l0.1,1.9h2.3l0.1-2l7.2-0.1l7.2,0.1L163.8,136.2z"/>
<path class="st0" d="M163.4,131.8h-13.7l0-0.5h-0.3l0-0.1l-0.2-29h0.3v-0.6h14.3v0.6h0.3l-0.2,29.1h-0.3L163.4,131.8z M149.8,131.6
	h13.3l0-0.5h0.3l0.2-28.7h-0.3v-0.6h-13.9v0.6h-0.3l0.2,28.7h0.3L149.8,131.6z"/>
<path class="st0" d="M112.4,83h-2.8l-0.1-2l-7-0.1l-7,0.1l-0.1,2h-2.8l-0.1-1.9h-0.4l0-0.6l-0.6-0.7l0-0.8h0.9l-0.2-28.8h0.3v-0.4
	h-0.3l0.1-2h-0.3l-0.5-0.6l0.1-1.3h-0.6l0-0.8l-1-1.9h24.8l-1,1.9l0,0.8h-0.6l0.1,1.3l-0.5,0.6h-0.3l0.1,2h-0.3v0.4h0.3L112.6,79
	h0.9l0,0.8l-0.6,0.7l0,0.6h-0.4L112.4,83z M109.8,82.8h2.3l0.1-1.9h0.4l0-0.5l0.6-0.7l0-0.5h-0.9l0.2-28.8h-0.3v-0.8h0.3l-0.1-2h0.5
	l0.4-0.4l-0.1-1.5h0.6l0-0.6l0.9-1.6H90.5l0.9,1.6l0,0.6H92l-0.1,1.5l0.4,0.4h0.5l-0.1,2h0.3v0.8h-0.3l0.2,28.8h-0.9l0,0.5l0.6,0.7
	l0,0.5h0.4l0.1,1.9h2.3l0.1-2l7.2-0.1l7.2,0.1L109.8,82.8z"/>
<path class="st0" d="M109.4,78.6H95.7l0-0.5h-0.3l0-0.1l-0.2-29h0.3v-0.6h14.3V49h0.3l-0.2,29.1h-0.3L109.4,78.6z M95.9,78.4h13.3
	l0-0.5h0.3l0.2-28.7h-0.3v-0.6H95.6v0.6h-0.3l0.2,28.7h0.3L95.9,78.4z"/>
<path class="st0" d="M139.2,83.1h-2.8l-0.1-2l-7-0.1l-7,0.1l-0.1,2h-2.8l-0.1-1.9H119l0-0.6l-0.6-0.7l0-0.8h0.9l-0.2-28.8h0.3V50
	h-0.3l0.1-2h-0.3l-0.5-0.6l0.1-1.3h-0.6l0-0.8l-1-1.9h24.8l-1,1.9l0,0.8h-0.6l0.1,1.3l-0.5,0.6h-0.3l0.1,2h-0.3v0.4h0.3l-0.2,28.8
	h0.9l0,0.8l-0.6,0.7l0,0.6h-0.4L139.2,83.1z M136.6,82.9h2.3l0.1-1.9h0.4l0-0.5l0.6-0.7l0-0.5h-0.9l0.2-28.8H139v-0.8h0.3l-0.1-2
	h0.5l0.4-0.4l-0.1-1.5h0.6l0-0.6l0.9-1.6h-24.1l0.9,1.6l0,0.6h0.6l-0.1,1.5l0.4,0.4h0.5l-0.1,2h0.3v0.8h-0.3l0.2,28.8h-0.9l0,0.5
	l0.6,0.7l0,0.5h0.4l0.1,1.9h2.3l0.1-2l7.2-0.1l7.2,0.1L136.6,82.9z"/>
<path class="st0" d="M136.2,78.4h-13.7l0-0.5h-0.3l0-0.1l-0.2-29h0.3v-0.6h14.3v0.6h0.3l-0.2,29.1h-0.3L136.2,78.4z M122.7,78.2H136
	l0-0.5h0.3l0.2-28.7h-0.3v-0.6h-13.9V49h-0.3l0.2,28.7h0.3L122.7,78.2z"/>
<path class="st0" d="M166.3,83h-2.8l-0.1-2l-7-0.1l-7,0.1l-0.1,2h-2.8l-0.1-1.9h-0.4l0-0.6l-0.6-0.7l0-0.8h0.9l-0.2-28.8h0.3v-0.4
	h-0.3l0.1-2h-0.3l-0.5-0.6l0.1-1.3h-0.6l0-0.8l-1-1.9h24.8l-1,1.9l0,0.8h-0.6l0.1,1.3l-0.5,0.6h-0.3l0.1,2h-0.3v0.4h0.3L166.5,79
	h0.9l0,0.8l-0.6,0.7l0,0.6h-0.4L166.3,83z M163.8,82.8h2.3l0.1-1.9h0.4l0-0.5l0.6-0.7l0-0.5h-0.9l0.2-28.8h-0.3v-0.8h0.3l-0.1-2h0.5
	l0.4-0.4l-0.1-1.5h0.6l0-0.6l0.9-1.6h-24.1l0.9,1.6l0,0.6h0.6l-0.1,1.5l0.4,0.4h0.5l-0.1,2h0.3v0.8h-0.3l0.2,28.8h-0.9l0,0.5
	l0.6,0.7l0,0.5h0.4l0.1,1.9h2.3l0.1-2l7.2-0.1l7.2,0.1L163.8,82.8z"/>
<path class="st0" d="M163.4,78.4h-13.7l0-0.5h-0.3l0-0.1l-0.2-29h0.3v-0.6h14.3v0.6h0.3l-0.2,29.1h-0.3L163.4,78.4z M149.8,78.2
	h13.3l0-0.5h0.3l0.2-28.7h-0.3v-0.6h-13.9V49h-0.3l0.2,28.7h0.3L149.8,78.2z"/>
<polygon class="st0" points="169.7,0.6 252.3,0.6 252.3,236.7 169.7,236.7 169.7,1.9 "/>
<polyline class="st0" points="169.7,1.6 170.8,4.2 170.8,5.7 171.2,8.1 173.1,10.7 173.1,17.1 173.1,24.1 171.4,24.1 171.4,25.2 
	172.5,27.9 211,27.9 "/>
<polyline class="st0" points="252.3,1.6 251.2,4.2 251.2,5.7 250.7,8.1 248.9,10.7 248.9,17.1 248.9,24.1 250.6,24.1 250.6,25.2 
	249.5,27.9 211,27.9 "/>
<polygon class="st0" points="170.8,5.7 251.2,5.7 250.7,8.1 171.2,8.1 "/>
<polygon class="st0" points="190.8,8.4 194,8.4 192.8,10.8 192.8,25.5 191.8,26.2 191.8,27.2 190.8,27.2 189.9,27.2 189.9,26.2 
	188.9,25.5 188.9,10.8 187.6,8.4 "/>
<polyline class="st0" points="179.1,8.1 177.4,10.8 177.4,25.5 176.3,26.4 176.3,27.2 174.3,27.2 174.3,26.2 173,24.9 173.1,24.1 
	"/>
<polyline class="st0" points="242.8,7.8 244.5,10.5 244.5,25.3 245.7,26.2 245.7,27 247.7,27 247.7,26 248.9,24.7 248.8,23.9 "/>
<polygon class="st0" points="198.5,8.4 201.6,8.4 200.4,10.8 200.4,25.5 199.4,26.2 199.4,27.2 198.5,27.2 197.5,27.2 197.5,26.2 
	196.5,25.5 196.5,10.8 195.3,8.4 "/>
<polygon class="st0" points="218.4,8.4 221.6,8.4 220.4,10.8 220.4,25.5 219.4,26.2 219.4,27.2 218.4,27.2 217.5,27.2 217.5,26.2 
	216.5,25.5 216.5,10.8 215.3,8.4 "/>
<polygon class="st0" points="226,8.4 229.2,8.4 227.9,10.8 227.9,25.5 226.9,26.2 226.9,27.2 226,27.2 225,27.2 225,26.2 
	224.1,25.5 224.1,10.8 222.8,8.4 "/>
<polygon class="st0" points="190.3,205 206.8,205 206.6,202.4 205.9,202 206,196 207,196 206.9,195.1 205.6,192.9 205.9,166.4 
	207.3,166.4 207.3,162 205.8,162 205.8,161.2 206.5,160.2 206.5,159.7 205.9,159.7 206.1,156.1 207,154.8 207.9,154.8 208.9,151.2 
	190.3,151.2 171.6,151.2 172.6,154.8 173.5,154.8 174.4,156.1 174.6,159.7 174,159.7 174,160.2 174.7,161.2 174.7,162 173.2,162 
	173.2,166.4 174.6,166.4 174.9,192.9 173.6,195.1 173.5,196 174.5,196 174.6,202 173.9,202.4 173.7,205 "/>
<polyline class="st0" points="190.3,162.1 180.2,162.1 180.2,166.1 179.1,166.1 179.1,193 180.9,195.7 179.7,195.7 179.7,201.8 
	180.2,202.4 180.2,205 190.3,205 "/>
<polyline class="st0" points="190.3,162.1 200.3,162.1 200.3,166.1 201.4,166.1 201.4,193 199.6,195.7 200.8,195.7 200.8,201.8 
	200.3,202.4 200.3,205 190.3,205 "/>
<rect x="176" y="156.2" class="st0" width="28.1" height="2.6"/>
<polyline class="st0" points="206.9,205.2 206.9,205.9 206.5,205.9 206.5,207 206.9,207 206.9,207.6 206.5,207.6 206.5,209.2 
	207.4,209.2 207.4,210 215.6,210 215.6,211 214.6,212 214.6,213.5 214,213.5 214,214.5 214.7,215.4 213.8,215.4 213.8,228.3 
	214.9,228.3 214.9,229 214.7,229 214.8,229.6 215.6,230.7 215.6,236.6 190.3,236.6 "/>
<polyline class="st0" points="173.6,205.2 173.6,205.9 174,205.9 173.6,207 173.6,207.6 174,207.6 174,209.2 173.1,209.2 173.1,210 
	164.9,210 164.9,211 165.9,212 165.9,213.5 166.5,213.5 166.5,214.5 165.8,215.4 166.7,215.4 166.7,228.3 165.6,228.3 165.6,229 
	165.8,229 165.7,229.6 164.9,230.7 164.9,236.6 190.3,236.6 "/>
<path class="st0" d="M206.5,207"/>
<line class="st0" x1="173.6" y1="207" x2="206.5" y2="207"/>
<line class="st0" x1="206.5" y1="207.6" x2="174" y2="207.6"/>
<line class="st0" x1="206.5" y1="209.2" x2="174" y2="209.2"/>
<polyline class="st0" points="173.1,210 175.3,210 207.4,210 "/>
<polyline class="st0" points="175.3,210 175.3,211.5 174.3,212.2 174.3,213.4 173.6,214.2 174.5,215.3 173.6,215.3 174,228.1 
	174.5,228.1 174.5,228.9 174,228.9 174.8,230.3 174.8,236.6 "/>
<polyline class="st0" points="204.8,210 204.8,211.5 205.8,212.2 205.8,213.4 206.5,214.2 205.6,215.3 206.5,215.3 206.1,228.1 
	205.6,228.1 205.6,228.9 206.1,228.9 205.3,230.3 205.3,236.6 "/>
<line class="st0" x1="174" y1="214.8" x2="206.1" y2="214.8"/>
<line class="st0" x1="206.5" y1="214.2" x2="173.6" y2="214.2"/>
<line class="st0" x1="174.3" y1="212.2" x2="205.8" y2="212.2"/>
<line class="st0" x1="204.8" y1="211.5" x2="175.3" y2="211.5"/>
<line class="st0" x1="173.7" y1="217.2" x2="206.4" y2="217.2"/>
<line class="st0" x1="206.4" y1="216.5" x2="173.7" y2="216.5"/>
<line class="st0" x1="173.8" y1="219.8" x2="206.3" y2="219.8"/>
<line class="st0" x1="206.3" y1="219.1" x2="173.6" y2="219.1"/>
<line class="st0" x1="174" y1="222.4" x2="206.2" y2="222.4"/>
<line class="st0" x1="206.2" y1="221.8" x2="173.6" y2="221.5"/>
<line class="st0" x1="174" y1="225.2" x2="206.1" y2="225.2"/>
<line class="st0" x1="206.2" y1="224.6" x2="173.9" y2="224.3"/>
<line class="st0" x1="174" y1="227" x2="206.1" y2="227"/>
<line class="st0" x1="205.6" y1="228.1" x2="174.5" y2="228.1"/>
<line class="st0" x1="174.8" y1="230.3" x2="205.3" y2="230.3"/>
<line class="st0" x1="205.3" y1="231.3" x2="174.8" y2="231.3"/>
<line class="st0" x1="174.8" y1="232.9" x2="205.3" y2="232.9"/>
<line class="st0" x1="205.3" y1="234.2" x2="174.8" y2="234.2"/>
<path class="st0" d="M194.3,136.4h-2.8l-0.1-2l-7-0.1l-7,0.1l-0.1,2h-2.8l-0.1-1.9h-0.4l0-0.6l-0.6-0.7l0-0.8h0.9l-0.2-28.8h0.3
	v-0.4h-0.3l0.1-2h-0.3l-0.5-0.6l0.1-1.3H173l0-0.8l-1-1.9h24.8l-1,1.9l0,0.8h-0.6l0.1,1.3l-0.5,0.6h-0.3l0.1,2h-0.3v0.4h0.3
	l-0.2,28.8h0.9l0,0.8l-0.6,0.7l0,0.6h-0.4L194.3,136.4z M191.8,136.2h2.3l0.1-1.9h0.4l0-0.5l0.6-0.7l0-0.5h-0.9l0.2-28.8h-0.3v-0.8
	h0.3l-0.1-2h0.5l0.4-0.4l-0.1-1.5h0.6l0-0.6l0.9-1.6h-24.1l0.9,1.6l0,0.6h0.6l-0.1,1.5l0.4,0.4h0.5l-0.1,2h0.3v0.8h-0.3l0.2,28.8
	h-0.9l0,0.5l0.6,0.7l0,0.5h0.4l0.1,1.9h2.3l0.1-2l7.2-0.1l7.2,0.1L191.8,136.2z"/>
<path class="st0" d="M191.4,132h-13.7l0-0.5h-0.3l0-0.1l-0.2-29h0.3v-0.6h14.3v0.6h0.3l-0.2,29.1h-0.3L191.4,132z M177.8,131.8h13.3
	l0-0.5h0.3l0.2-28.7h-0.3V102h-13.9v0.6h-0.3l0.2,28.7h0.3L177.8,131.8z"/>
<path class="st0" d="M240.3,198.5h-2.8l-0.1-2l-7-0.1l-7,0.1l-0.1,2h-2.8l-0.1-1.9h-0.4l0-0.6l-0.6-0.7l0-0.8h0.9l-0.2-28.8h0.3
	v-0.4h-0.3l0.1-2h-0.3l-0.5-0.6l0.1-1.3H219l0-0.8l-1-1.9h24.8l-1,1.9l0,0.8h-0.6l0.1,1.3l-0.5,0.6h-0.3l0.1,2h-0.3v0.4h0.3
	l-0.2,28.8h0.9l0,0.8l-0.6,0.7l0,0.6h-0.4L240.3,198.5z M237.7,198.3h2.3l0.1-1.9h0.4l0-0.5l0.6-0.7l0-0.5h-0.9l0.2-28.8h-0.3v-0.8
	h0.3l-0.1-2h0.5l0.4-0.4l-0.1-1.5h0.6l0-0.6l0.9-1.6h-24.1l0.9,1.6l0,0.6h0.6l-0.1,1.5l0.4,0.4h0.5l-0.1,2h0.3v0.8h-0.3l0.2,28.8
	h-0.9l0,0.5l0.6,0.7l0,0.5h0.4l0.1,1.9h2.3l0.1-2l7.2-0.1l7.2,0.1L237.7,198.3z"/>
<path class="st0" d="M237.3,194.8h-13.7l0-0.5h-0.3l0-0.1l-0.2-29h0.3v-0.6h14.3v0.6h0.3l-0.2,29.1h-0.3L237.3,194.8z M223.8,194.6
	h13.3l0-0.5h0.3l0.2-28.7h-0.3v-0.6h-13.9v0.6h-0.3l0.2,28.7h0.3L223.8,194.6z"/>
<path class="st0" d="M221.1,136.5h-2.8l-0.1-2l-7-0.1l-7,0.1l-0.1,2h-2.8l-0.1-1.9h-0.4l0-0.6l-0.6-0.7l0-0.8h0.9l-0.2-28.8h0.3
	v-0.4h-0.3l0.1-2h-0.3l-0.5-0.6l0.1-1.3h-0.6l0-0.8l-1-1.9h24.8l-1,1.9l0,0.8h-0.6l0.1,1.3l-0.5,0.6h-0.3l0.1,2h-0.3v0.4h0.3
	l-0.2,28.8h0.9l0,0.8l-0.6,0.7l0,0.6h-0.4L221.1,136.5z M218.5,136.4h2.3l0.1-1.9h0.4l0-0.5l0.6-0.7l0-0.5H221l0.2-28.8h-0.3v-0.8
	h0.3l-0.1-2h0.5l0.4-0.4l-0.1-1.5h0.6l0-0.6l0.9-1.6h-24.1l0.9,1.6l0,0.6h0.6l-0.1,1.5l0.4,0.4h0.5l-0.1,2h0.3v0.8h-0.3l0.2,28.8
	h-0.9l0,0.5l0.6,0.7l0,0.5h0.4l0.1,1.9h2.3l0.1-2l7.2-0.1l7.2,0.1L218.5,136.4z"/>
<path class="st0" d="M218.1,131.8h-13.7l0-0.5H204l0-0.1l-0.2-29h0.3v-0.6h14.3v0.6h0.3l-0.2,29.1h-0.3L218.1,131.8z M204.6,131.6
	h13.3l0-0.5h0.3l0.2-28.7h-0.3v-0.6h-13.9v0.6H204l0.2,28.7h0.3L204.6,131.6z"/>
<path class="st0" d="M248.3,136.4h-2.8l-0.1-2l-7-0.1l-7,0.1l-0.1,2h-2.8l-0.1-1.9h-0.4l0-0.6l-0.6-0.7l0-0.8h0.9l-0.2-28.8h0.3
	v-0.4h-0.3l0.1-2h-0.3l-0.5-0.6l0.1-1.3H227l0-0.8l-1-1.9h24.8l-1,1.9l0,0.8h-0.6l0.1,1.3l-0.5,0.6h-0.3l0.1,2h-0.3v0.4h0.3
	l-0.2,28.8h0.9l0,0.8l-0.6,0.7l0,0.6h-0.4L248.3,136.4z M245.7,136.2h2.3l0.1-1.9h0.4l0-0.5l0.6-0.7l0-0.5h-0.9l0.2-28.8h-0.3v-0.8
	h0.3l-0.1-2h0.5l0.4-0.4l-0.1-1.5h0.6l0-0.6l0.9-1.6h-24.1l0.9,1.6l0,0.6h0.6l-0.1,1.5l0.4,0.4h0.5l-0.1,2h0.3v0.8h-0.3l0.2,28.8
	h-0.9l0,0.5l0.6,0.7l0,0.5h0.4l0.1,1.9h2.3l0.1-2l7.2-0.1l7.2,0.1L245.7,136.2z"/>
<path class="st0" d="M245.3,131.8h-13.7l0-0.5h-0.3l0-0.1l-0.2-29h0.3v-0.6h14.3v0.6h0.3l-0.2,29.1h-0.3L245.3,131.8z M231.8,131.6
	h13.3l0-0.5h0.3l0.2-28.7h-0.3v-0.6h-13.9v0.6h-0.3l0.2,28.7h0.3L231.8,131.6z"/>
<path class="st0" d="M194.3,83h-2.8l-0.1-2l-7-0.1l-7,0.1l-0.1,2h-2.8l-0.1-1.9h-0.4l0-0.6l-0.6-0.7l0-0.8h0.9l-0.2-28.8h0.3v-0.4
	h-0.3l0.1-2h-0.3l-0.5-0.6l0.1-1.3H173l0-0.8l-1-1.9h24.8l-1,1.9l0,0.8h-0.6l0.1,1.3l-0.5,0.6h-0.3l0.1,2h-0.3v0.4h0.3L194.5,79h0.9
	l0,0.8l-0.6,0.7l0,0.6h-0.4L194.3,83z M191.8,82.8h2.3l0.1-1.9h0.4l0-0.5l0.6-0.7l0-0.5h-0.9l0.2-28.8h-0.3v-0.8h0.3l-0.1-2h0.5
	l0.4-0.4l-0.1-1.5h0.6l0-0.6l0.9-1.6h-24.1l0.9,1.6l0,0.6h0.6l-0.1,1.5l0.4,0.4h0.5l-0.1,2h0.3v0.8h-0.3l0.2,28.8h-0.9l0,0.5
	l0.6,0.7l0,0.5h0.4l0.1,1.9h2.3l0.1-2l7.2-0.1l7.2,0.1L191.8,82.8z"/>
<path class="st0" d="M191.4,78.6h-13.7l0-0.5h-0.3l0-0.1l-0.2-29h0.3v-0.6h14.3V49h0.3l-0.2,29.1h-0.3L191.4,78.6z M177.8,78.4h13.3
	l0-0.5h0.3l0.2-28.7h-0.3v-0.6h-13.9v0.6h-0.3l0.2,28.7h0.3L177.8,78.4z"/>
<path class="st0" d="M221.1,83.1h-2.8l-0.1-2l-7-0.1l-7,0.1l-0.1,2h-2.8l-0.1-1.9h-0.4l0-0.6l-0.6-0.7l0-0.8h0.9l-0.2-28.8h0.3V50
	h-0.3l0.1-2h-0.3l-0.5-0.6l0.1-1.3h-0.6l0-0.8l-1-1.9h24.8l-1,1.9l0,0.8h-0.6l0.1,1.3l-0.5,0.6h-0.3l0.1,2h-0.3v0.4h0.3l-0.2,28.8
	h0.9l0,0.8l-0.6,0.7l0,0.6h-0.4L221.1,83.1z M218.5,82.9h2.3L221,81h0.4l0-0.5l0.6-0.7l0-0.5H221l0.2-28.8h-0.3v-0.8h0.3l-0.1-2h0.5
	l0.4-0.4l-0.1-1.5h0.6l0-0.6l0.9-1.6h-24.1l0.9,1.6l0,0.6h0.6l-0.1,1.5l0.4,0.4h0.5l-0.1,2h0.3v0.8h-0.3l0.2,28.8h-0.9l0,0.5
	l0.6,0.7l0,0.5h0.4l0.1,1.9h2.3l0.1-2l7.2-0.1l7.2,0.1L218.5,82.9z"/>
<path class="st0" d="M218.1,78.4h-13.7l0-0.5H204l0-0.1l-0.2-29h0.3v-0.6h14.3v0.6h0.3l-0.2,29.1h-0.3L218.1,78.4z M204.6,78.2h13.3
	l0-0.5h0.3l0.2-28.7h-0.3v-0.6h-13.9V49H204l0.2,28.7h0.3L204.6,78.2z"/>
<path class="st0" d="M248.3,83h-2.8l-0.1-2l-7-0.1l-7,0.1l-0.1,2h-2.8l-0.1-1.9h-0.4l0-0.6l-0.6-0.7l0-0.8h0.9l-0.2-28.8h0.3v-0.4
	h-0.3l0.1-2h-0.3l-0.5-0.6l0.1-1.3H227l0-0.8l-1-1.9h24.8l-1,1.9l0,0.8h-0.6l0.1,1.3l-0.5,0.6h-0.3l0.1,2h-0.3v0.4h0.3L248.4,79h0.9
	l0,0.8l-0.6,0.7l0,0.6h-0.4L248.3,83z M245.7,82.8h2.3l0.1-1.9h0.4l0-0.5l0.6-0.7l0-0.5h-0.9l0.2-28.8h-0.3v-0.8h0.3l-0.1-2h0.5
	l0.4-0.4l-0.1-1.5h0.6l0-0.6l0.9-1.6h-24.1l0.9,1.6l0,0.6h0.6l-0.1,1.5l0.4,0.4h0.5l-0.1,2h0.3v0.8h-0.3l0.2,28.8h-0.9l0,0.5
	l0.6,0.7l0,0.5h0.4l0.1,1.9h2.3l0.1-2l7.2-0.1l7.2,0.1L245.7,82.8z"/>
<path class="st0" d="M245.3,78.4h-13.7l0-0.5h-0.3l0-0.1l-0.2-29h0.3v-0.6h14.3v0.6h0.3l-0.2,29.1h-0.3L245.3,78.4z M231.8,78.2
	h13.3l0-0.5h0.3l0.2-28.7h-0.3v-0.6h-13.9V49h-0.3l0.2,28.7h0.3L231.8,78.2z"/>
<polygon class="st0" points="251.6,0.6 334.2,0.6 334.2,236.7 251.6,236.7 251.6,1.9 "/>
<polyline class="st0" points="251.6,1.6 252.7,4.2 252.7,5.7 253.1,8.1 255,10.7 255,17.1 255,24.1 253.3,24.1 253.3,25.2 
	254.4,27.9 292.9,27.9 "/>
<polyline class="st0" points="334.2,1.6 333.1,4.2 333.1,5.7 332.7,8.1 330.8,10.7 330.8,17.1 330.8,24.1 332.5,24.1 332.5,25.2 
	331.4,27.9 292.9,27.9 "/>
<polygon class="st0" points="252.7,5.7 333.1,5.7 332.7,8.1 253.1,8.1 "/>
<polygon class="st0" points="272.8,8.4 275.9,8.4 274.7,10.8 274.7,25.5 273.7,26.2 273.7,27.2 272.8,27.2 271.8,27.2 271.8,26.2 
	270.8,25.5 270.8,10.8 269.6,8.4 "/>
<polyline class="st0" points="261.1,8.1 259.4,10.8 259.4,25.5 258.2,26.4 258.2,27.2 256.2,27.2 256.2,26.2 254.9,24.9 255,24.1 
	"/>
<polyline class="st0" points="324.7,7.8 326.4,10.5 326.4,25.3 327.6,26.2 327.6,27 329.6,27 329.6,26 330.8,24.7 330.8,23.9 "/>
<polygon class="st0" points="280.4,8.4 283.6,8.4 282.3,10.8 282.3,25.5 281.3,26.2 281.3,27.2 280.4,27.2 279.4,27.2 279.4,26.2 
	278.5,25.5 278.5,10.8 277.2,8.4 "/>
<polygon class="st0" points="300.4,8.4 303.5,8.4 302.3,10.8 302.3,25.5 301.3,26.2 301.3,27.2 300.4,27.2 299.4,27.2 299.4,26.2 
	298.4,25.5 298.4,10.8 297.2,8.4 "/>
<polygon class="st0" points="307.9,8.4 311.1,8.4 309.8,10.8 309.8,25.5 308.9,26.2 308.9,27.2 307.9,27.2 306.9,27.2 306.9,26.2 
	306,25.5 306,10.8 304.7,8.4 "/>
<polygon class="st0" points="272.2,205 288.8,205 288.5,202.4 287.8,202 287.9,196 288.9,196 288.8,195.1 287.6,192.9 287.8,166.4 
	289.2,166.4 289.2,162 287.7,162 287.7,161.2 288.4,160.2 288.5,159.7 287.9,159.7 288,156.1 288.9,154.8 289.8,154.8 290.8,151.2 
	272.2,151.2 253.5,151.2 254.6,154.8 255.5,154.8 256.3,156.1 256.5,159.7 255.9,159.7 256,160.2 256.6,161.2 256.6,162 255.2,162 
	255.2,166.4 256.6,166.4 256.8,192.9 255.5,195.1 255.5,196 256.4,196 256.6,202 255.8,202.4 255.6,205 "/>
<polyline class="st0" points="272.2,162.1 262.2,162.1 262.2,166.1 261,166.1 261,193 262.8,195.7 261.6,195.7 261.6,201.8 
	262.2,202.4 262.2,205 272.2,205 "/>
<polyline class="st0" points="272.2,162.1 282.2,162.1 282.2,166.1 283.3,166.1 283.3,193 281.5,195.7 282.8,195.7 282.8,201.8 
	282.2,202.4 282.2,205 272.2,205 "/>
<rect x="257.9" y="156.2" class="st0" width="28.1" height="2.6"/>
<polyline class="st0" points="288.8,205.2 288.8,205.9 288.4,205.9 288.4,207 288.8,207 288.8,207.6 288.4,207.6 288.4,209.2 
	289.4,209.2 289.4,210 297.5,210 297.5,211 296.5,212 296.5,213.5 295.9,213.5 295.9,214.5 296.6,215.4 295.7,215.4 295.7,228.3 
	296.9,228.3 296.8,229 296.6,229 296.7,229.6 297.5,230.7 297.5,236.6 272.2,236.6 "/>
<polyline class="st0" points="255.6,205.2 255.6,205.9 256,205.9 255.6,207 255.6,207.6 256,207.6 256,209.2 255,209.2 255,210 
	246.8,210 246.8,211 247.9,212 247.8,213.5 248.4,213.5 248.4,214.5 247.8,215.4 248.6,215.4 248.6,228.3 247.5,228.3 247.5,229 
	247.7,229 247.6,229.6 246.8,230.7 246.8,236.6 272.2,236.6 "/>
<path class="st0" d="M288.4,207"/>
<line class="st0" x1="255.6" y1="207" x2="288.4" y2="207"/>
<line class="st0" x1="288.4" y1="207.6" x2="256" y2="207.6"/>
<line class="st0" x1="288.4" y1="209.2" x2="256" y2="209.2"/>
<polyline class="st0" points="255,210 257.3,210 289.4,210 "/>
<polyline class="st0" points="257.3,210 257.3,211.5 256.3,212.2 256.3,213.4 255.6,214.2 256.4,215.3 255.6,215.3 256,228.1 
	256.4,228.1 256.4,228.9 256,228.9 256.8,230.3 256.7,236.6 "/>
<polyline class="st0" points="286.7,210 286.7,211.5 287.7,212.2 287.7,213.4 288.4,214.2 287.5,215.3 288.4,215.3 288,228.1 
	287.5,228.1 287.5,228.9 288,228.9 287.2,230.3 287.2,236.6 "/>
<line class="st0" x1="256" y1="214.8" x2="288" y2="214.8"/>
<line class="st0" x1="288.4" y1="214.2" x2="255.6" y2="214.2"/>
<line class="st0" x1="256.3" y1="212.2" x2="287.7" y2="212.2"/>
<line class="st0" x1="286.7" y1="211.5" x2="257.3" y2="211.5"/>
<line class="st0" x1="255.6" y1="217.2" x2="288.3" y2="217.2"/>
<line class="st0" x1="288.3" y1="216.5" x2="255.6" y2="216.5"/>
<line class="st0" x1="255.7" y1="219.8" x2="288.3" y2="219.8"/>
<line class="st0" x1="288.3" y1="219.1" x2="255.6" y2="219.1"/>
<line class="st0" x1="256" y1="222.4" x2="288.2" y2="222.4"/>
<line class="st0" x1="288.2" y1="221.8" x2="255.6" y2="221.5"/>
<line class="st0" x1="256" y1="225.2" x2="288" y2="225.2"/>
<line class="st0" x1="288.1" y1="224.6" x2="255.8" y2="224.3"/>
<line class="st0" x1="256" y1="227" x2="288" y2="227"/>
<line class="st0" x1="287.5" y1="228.1" x2="256.4" y2="228.1"/>
<line class="st0" x1="256.8" y1="230.3" x2="287.2" y2="230.3"/>
<line class="st0" x1="287.2" y1="231.3" x2="256.8" y2="231.3"/>
<line class="st0" x1="256.8" y1="232.9" x2="287.2" y2="232.9"/>
<line class="st0" x1="287.2" y1="234.2" x2="256.8" y2="234.2"/>
<path class="st0" d="M276.3,136.4h-2.8l-0.1-2l-7-0.1l-7,0.1l-0.1,2h-2.8l-0.1-1.9H256l0-0.6l-0.6-0.7l0-0.8h0.9l-0.2-28.8h0.3v-0.4
	h-0.3l0.1-2H256l-0.5-0.6l0.1-1.3H255l0-0.8l-1-1.9h24.8l-1,1.9l0,0.8h-0.6l0.1,1.3l-0.5,0.6h-0.3l0.1,2h-0.3v0.4h0.3l-0.2,28.8h0.9
	l0,0.8l-0.6,0.7l0,0.6h-0.4L276.3,136.4z M273.7,136.2h2.3l0.1-1.9h0.4l0-0.5l0.6-0.7l0-0.5h-0.9l0.2-28.8h-0.3v-0.8h0.3l-0.1-2h0.5
	l0.4-0.4l-0.1-1.5h0.6l0-0.6l0.9-1.6h-24.1l0.9,1.6l0,0.6h0.6l-0.1,1.5l0.4,0.4h0.5l-0.1,2h0.3v0.8h-0.3l0.2,28.8h-0.9l0,0.5
	l0.6,0.7l0,0.5h0.4l0.1,1.9h2.3l0.1-2l7.2-0.1l7.2,0.1L273.7,136.2z"/>
<path class="st0" d="M273.3,132h-13.7l0-0.5h-0.3l0-0.1l-0.2-29h0.3v-0.6h14.3v0.6h0.3l-0.2,29.1h-0.3L273.3,132z M259.7,131.8h13.3
	l0-0.5h0.3l0.2-28.7h-0.3V102h-13.9v0.6h-0.3l0.2,28.7h0.3L259.7,131.8z"/>
<path class="st0" d="M322.2,198.5h-2.8l-0.1-2l-7-0.1l-7,0.1l-0.1,2h-2.8l-0.1-1.9H302l0-0.6l-0.6-0.7l0-0.8h0.9l-0.2-28.8h0.3v-0.4
	h-0.3l0.1-2H302l-0.5-0.6l0.1-1.3h-0.6l0-0.8l-1-1.9h24.8l-1,1.9l0,0.8h-0.6l0.1,1.3l-0.5,0.6h-0.3l0.1,2h-0.3v0.4h0.3l-0.2,28.8
	h0.9l0,0.8l-0.6,0.7l0,0.6h-0.4L322.2,198.5z M319.7,198.3h2.3l0.1-1.9h0.4l0-0.5l0.6-0.7l0-0.5h-0.9l0.2-28.8h-0.3v-0.8h0.3l-0.1-2
	h0.5l0.4-0.4l-0.1-1.5h0.6l0-0.6l0.9-1.6h-24.1l0.9,1.6l0,0.6h0.6l-0.1,1.5l0.4,0.4h0.5l-0.1,2h0.3v0.8h-0.3l0.2,28.8h-0.9l0,0.5
	l0.6,0.7l0,0.5h0.4l0.1,1.9h2.3l0.1-2l7.2-0.1l7.2,0.1L319.7,198.3z"/>
<path class="st0" d="M319.2,194.8h-13.7l0-0.5h-0.3l0-0.1l-0.2-29h0.3v-0.6h14.3v0.6h0.3l-0.2,29.1h-0.3L319.2,194.8z M305.7,194.6
	H319l0-0.5h0.3l0.2-28.7h-0.3v-0.6h-13.9v0.6h-0.3l0.2,28.7h0.3L305.7,194.6z"/>
<path class="st0" d="M303,136.5h-2.8l-0.1-2l-7-0.1l-7,0.1l-0.1,2h-2.8l-0.1-1.9h-0.4l0-0.6l-0.6-0.7l0-0.8h0.9l-0.2-28.8h0.3v-0.4
	H283l0.1-2h-0.3l-0.5-0.6l0.1-1.3h-0.6l0-0.8l-1-1.9h24.8l-1,1.9l0,0.8H304l0.1,1.3l-0.5,0.6h-0.3l0.1,2h-0.3v0.4h0.3l-0.2,28.8h0.9
	l0,0.8l-0.6,0.7l0,0.6h-0.4L303,136.5z M300.5,136.4h2.3l0.1-1.9h0.4l0-0.5l0.6-0.7l0-0.5h-0.9l0.2-28.8h-0.3v-0.8h0.3l-0.1-2h0.5
	l0.4-0.4l-0.1-1.5h0.6l0-0.6l0.9-1.6h-24.1l0.9,1.6l0,0.6h0.6l-0.1,1.5l0.4,0.4h0.5l-0.1,2h0.3v0.8h-0.3l0.2,28.8h-0.9l0,0.5
	l0.6,0.7l0,0.5h0.4l0.1,1.9h2.3l0.1-2l7.2-0.1l7.2,0.1L300.5,136.4z"/>
<path class="st0" d="M300,131.8h-13.7l0-0.5h-0.3l0-0.1l-0.2-29h0.3v-0.6h14.3v0.6h0.3l-0.2,29.1h-0.3L300,131.8z M286.5,131.6h13.3
	l0-0.5h0.3l0.2-28.7h-0.3v-0.6h-13.9v0.6H286l0.2,28.7h0.3L286.5,131.6z"/>
<path class="st0" d="M330.2,136.4h-2.8l-0.1-2l-7-0.1l-7,0.1l-0.1,2h-2.8l-0.1-1.9H310l0-0.6l-0.6-0.7l0-0.8h0.9l-0.2-28.8h0.3v-0.4
	h-0.3l0.1-2H310l-0.5-0.6l0.1-1.3h-0.6l0-0.8l-1-1.9h24.8l-1,1.9l0,0.8h-0.6l0.1,1.3l-0.5,0.6h-0.3l0.1,2h-0.3v0.4h0.3l-0.2,28.8
	h0.9l0,0.8l-0.6,0.7l0,0.6h-0.4L330.2,136.4z M327.7,136.2h2.3l0.1-1.9h0.4l0-0.5l0.6-0.7l0-0.5h-0.9l0.2-28.8h-0.3v-0.8h0.3l-0.1-2
	h0.5l0.4-0.4l-0.1-1.5h0.6l0-0.6l0.9-1.6h-24.1l0.9,1.6l0,0.6h0.6l-0.1,1.5l0.4,0.4h0.5l-0.1,2h0.3v0.8h-0.3l0.2,28.8h-0.9l0,0.5
	l0.6,0.7l0,0.5h0.4l0.1,1.9h2.3l0.1-2l7.2-0.1l7.2,0.1L327.7,136.2z"/>
<path class="st0" d="M327.2,131.8h-13.7l0-0.5h-0.3l0-0.1l-0.2-29h0.3v-0.6h14.3v0.6h0.3l-0.2,29.1h-0.3L327.2,131.8z M313.7,131.6
	H327l0-0.5h0.3l0.2-28.7h-0.3v-0.6h-13.9v0.6h-0.3l0.2,28.7h0.3L313.7,131.6z"/>
<path class="st0" d="M276.3,83h-2.8l-0.1-2l-7-0.1l-7,0.1l-0.1,2h-2.8l-0.1-1.9H256l0-0.6l-0.6-0.7l0-0.8h0.9l-0.2-28.8h0.3v-0.4
	h-0.3l0.1-2H256l-0.5-0.6l0.1-1.3H255l0-0.8l-1-1.9h24.8l-1,1.9l0,0.8h-0.6l0.1,1.3l-0.5,0.6h-0.3l0.1,2h-0.3v0.4h0.3L276.4,79h0.9
	l0,0.8l-0.6,0.7l0,0.6h-0.4L276.3,83z M273.7,82.8h2.3l0.1-1.9h0.4l0-0.5l0.6-0.7l0-0.5h-0.9l0.2-28.8h-0.3v-0.8h0.3l-0.1-2h0.5
	l0.4-0.4l-0.1-1.5h0.6l0-0.6l0.9-1.6h-24.1l0.9,1.6l0,0.6h0.6l-0.1,1.5l0.4,0.4h0.5l-0.1,2h0.3v0.8h-0.3l0.2,28.8h-0.9l0,0.5
	l0.6,0.7l0,0.5h0.4l0.1,1.9h2.3l0.1-2l7.2-0.1l7.2,0.1L273.7,82.8z"/>
<path class="st0" d="M273.3,78.6h-13.7l0-0.5h-0.3l0-0.1L259,49h0.3v-0.6h14.3V49h0.3l-0.2,29.1h-0.3L273.3,78.6z M259.7,78.4h13.3
	l0-0.5h0.3l0.2-28.7h-0.3v-0.6h-13.9v0.6h-0.3l0.2,28.7h0.3L259.7,78.4z"/>
<path class="st0" d="M303,83.1h-2.8l-0.1-2l-7-0.1l-7,0.1l-0.1,2h-2.8l-0.1-1.9h-0.4l0-0.6l-0.6-0.7l0-0.8h0.9L283,50.4h0.3V50H283
	l0.1-2h-0.3l-0.5-0.6l0.1-1.3h-0.6l0-0.8l-1-1.9h24.8l-1,1.9l0,0.8H304l0.1,1.3l-0.5,0.6h-0.3l0.1,2h-0.3v0.4h0.3l-0.2,28.8h0.9
	l0,0.8l-0.6,0.7l0,0.6h-0.4L303,83.1z M300.5,82.9h2.3l0.1-1.9h0.4l0-0.5l0.6-0.7l0-0.5h-0.9l0.2-28.8h-0.3v-0.8h0.3l-0.1-2h0.5
	l0.4-0.4l-0.1-1.5h0.6l0-0.6l0.9-1.6h-24.1l0.9,1.6l0,0.6h0.6l-0.1,1.5l0.4,0.4h0.5l-0.1,2h0.3v0.8h-0.3l0.2,28.8h-0.9l0,0.5
	l0.6,0.7l0,0.5h0.4l0.1,1.9h2.3l0.1-2l7.2-0.1l7.2,0.1L300.5,82.9z"/>
<path class="st0" d="M300,78.4h-13.7l0-0.5h-0.3l0-0.1l-0.2-29h0.3v-0.6h14.3v0.6h0.3l-0.2,29.1h-0.3L300,78.4z M286.5,78.2h13.3
	l0-0.5h0.3l0.2-28.7h-0.3v-0.6h-13.9V49H286l0.2,28.7h0.3L286.5,78.2z"/>
<path class="st0" d="M330.2,83h-2.8l-0.1-2l-7-0.1l-7,0.1l-0.1,2h-2.8l-0.1-1.9H310l0-0.6l-0.6-0.7l0-0.8h0.9l-0.2-28.8h0.3v-0.4
	h-0.3l0.1-2H310l-0.5-0.6l0.1-1.3h-0.6l0-0.8l-1-1.9h24.8l-1,1.9l0,0.8h-0.6l0.1,1.3l-0.5,0.6h-0.3l0.1,2h-0.3v0.4h0.3L330.4,79h0.9
	l0,0.8l-0.6,0.7l0,0.6h-0.4L330.2,83z M327.7,82.8h2.3l0.1-1.9h0.4l0-0.5l0.6-0.7l0-0.5h-0.9l0.2-28.8h-0.3v-0.8h0.3l-0.1-2h0.5
	l0.4-0.4l-0.1-1.5h0.6l0-0.6l0.9-1.6h-24.1l0.9,1.6l0,0.6h0.6l-0.1,1.5l0.4,0.4h0.5l-0.1,2h0.3v0.8h-0.3l0.2,28.8h-0.9l0,0.5
	l0.6,0.7l0,0.5h0.4l0.1,1.9h2.3l0.1-2l7.2-0.1l7.2,0.1L327.7,82.8z"/>
<path class="st0" d="M327.2,78.4h-13.7l0-0.5h-0.3l0-0.1l-0.2-29h0.3v-0.6h14.3v0.6h0.3l-0.2,29.1h-0.3L327.2,78.4z M313.7,78.2H327
	l0-0.5h0.3l0.2-28.7h-0.3v-0.6h-13.9V49h-0.3l0.2,28.7h0.3L313.7,78.2z"/>
<polygon class="st0" points="333.5,0.5 416.1,0.5 416.1,236.6 333.5,236.6 333.5,1.8 "/>
<polyline class="st0" points="333.5,1.5 334.6,4.1 334.6,5.6 335.1,8 336.9,10.6 336.9,17 336.9,24 335.2,24 335.2,25.1 336.3,27.7 
	374.8,27.7 "/>
<polyline class="st0" points="416.1,1.5 415,4.1 415,5.6 414.6,8 412.7,10.6 412.7,17 412.7,24 414.4,24 414.4,25.1 413.3,27.7 
	374.8,27.7 "/>
<polygon class="st0" points="334.6,5.6 415,5.6 414.6,8 335.1,8 "/>
<polygon class="st0" points="354.7,8.3 357.9,8.3 356.6,10.6 356.6,25.4 355.6,26.1 355.6,27.1 354.7,27.1 353.7,27.1 353.7,26.1 
	352.8,25.4 352.8,10.6 351.5,8.3 "/>
<polyline class="st0" points="343,8 341.3,10.6 341.3,25.4 340.1,26.3 340.1,27.1 338.1,27.1 338.1,26.1 336.8,24.8 336.9,24 "/>
<polyline class="st0" points="406.6,7.7 408.3,10.4 408.3,25.2 409.5,26.1 409.5,26.9 411.5,26.9 411.5,25.9 412.8,24.6 412.7,23.7 
	"/>
<polygon class="st0" points="362.3,8.3 365.5,8.3 364.2,10.6 364.2,25.4 363.3,26.1 363.3,27.1 362.3,27.1 361.3,27.1 361.3,26.1 
	360.4,25.4 360.4,10.6 359.1,8.3 "/>
<polygon class="st0" points="382.3,8.3 385.5,8.3 384.2,10.6 384.2,25.4 383.3,26.1 383.3,27.1 382.3,27.1 381.3,27.1 381.3,26.1 
	380.4,25.4 380.4,10.6 379.1,8.3 "/>
<polygon class="st0" points="389.8,8.3 393,8.3 391.8,10.6 391.8,25.4 390.8,26.1 390.8,27.1 389.8,27.1 388.9,27.1 388.9,26.1 
	387.9,25.4 387.9,10.6 386.7,8.3 "/>
<polygon class="st0" points="354.1,204.9 370.7,204.9 370.5,202.3 369.7,201.9 369.9,195.9 370.8,195.9 370.8,195 369.5,192.8 
	369.7,166.3 371.1,166.3 371.1,161.9 369.6,161.9 369.6,161.1 370.3,160.1 370.4,159.6 369.8,159.6 369.9,156 370.8,154.7 
	371.7,154.7 372.8,151.1 354.1,151.1 335.5,151.1 336.5,154.7 337.4,154.7 338.3,156 338.4,159.6 337.8,159.6 337.9,160.1 
	338.6,161.1 338.6,161.9 337.1,161.9 337.1,166.3 338.5,166.3 338.7,192.8 337.5,195 337.4,195.9 338.3,195.9 338.5,201.9 
	337.8,202.3 337.5,204.9 "/>
<polyline class="st0" points="354.1,162 344.1,162 344.1,166 343,166 343,192.9 344.8,195.6 343.5,195.6 343.5,201.7 344.1,202.3 
	344.1,204.9 354.1,204.9 "/>
<polyline class="st0" points="354.1,162 364.1,162 364.1,166 365.2,166 365.2,192.9 363.5,195.6 364.7,195.6 364.7,201.7 
	364.1,202.3 364.1,204.9 354.1,204.9 "/>
<rect x="339.9" y="156.1" class="st0" width="28.1" height="2.6"/>
<polyline class="st0" points="370.7,205.1 370.7,205.8 370.3,205.8 370.3,206.9 370.7,206.9 370.7,207.5 370.3,207.5 370.3,209.1 
	371.3,209.1 371.3,209.9 379.5,209.9 379.5,210.9 378.4,211.9 378.5,213.4 377.9,213.4 377.9,214.4 378.5,215.3 377.6,215.3 
	377.6,228.2 378.8,228.2 378.8,228.9 378.6,228.9 378.6,229.5 379.5,230.5 379.5,236.5 354.1,236.5 "/>
<polyline class="st0" points="337.5,205.1 337.5,205.8 337.9,205.8 337.5,206.9 337.5,207.5 337.9,207.5 337.9,209.1 336.9,209.1 
	336.9,209.9 328.8,209.9 328.8,210.9 329.8,211.9 329.8,213.4 330.3,213.4 330.3,214.4 329.7,215.3 330.6,215.3 330.6,228.2 
	329.4,228.2 329.5,228.9 329.6,228.9 329.6,229.5 328.8,230.5 328.8,236.5 354.1,236.5 "/>
<path class="st0" d="M370.3,206.9"/>
<line class="st0" x1="337.5" y1="206.9" x2="370.3" y2="206.9"/>
<line class="st0" x1="370.3" y1="207.5" x2="337.9" y2="207.5"/>
<line class="st0" x1="370.3" y1="209.1" x2="337.9" y2="209.1"/>
<polyline class="st0" points="336.9,209.9 339.2,209.9 371.3,209.9 "/>
<polyline class="st0" points="339.2,209.9 339.2,211.4 338.2,212.1 338.2,213.3 337.5,214.1 338.3,215.2 337.5,215.2 337.9,228 
	338.3,228 338.3,228.8 337.9,228.8 338.7,230.2 338.6,236.5 "/>
<polyline class="st0" points="368.6,209.9 368.6,211.4 369.6,212.1 369.6,213.3 370.3,214.1 369.5,215.2 370.3,215.2 369.9,228 
	369.5,228 369.5,228.8 369.9,228.8 369.1,230.2 369.2,236.5 "/>
<line class="st0" x1="337.9" y1="214.7" x2="369.9" y2="214.7"/>
<line class="st0" x1="370.3" y1="214.1" x2="337.5" y2="214.1"/>
<line class="st0" x1="338.2" y1="212.1" x2="369.6" y2="212.1"/>
<line class="st0" x1="368.6" y1="211.4" x2="339.2" y2="211.4"/>
<line class="st0" x1="337.5" y1="217.1" x2="370.3" y2="217.1"/>
<line class="st0" x1="370.3" y1="216.4" x2="337.5" y2="216.4"/>
<line class="st0" x1="337.6" y1="219.7" x2="370.2" y2="219.7"/>
<line class="st0" x1="370.2" y1="219" x2="337.5" y2="219"/>
<line class="st0" x1="337.9" y1="222.3" x2="370.1" y2="222.3"/>
<line class="st0" x1="370.1" y1="221.6" x2="337.5" y2="221.4"/>
<line class="st0" x1="337.9" y1="225.1" x2="369.9" y2="225.1"/>
<line class="st0" x1="370" y1="224.5" x2="337.8" y2="224.2"/>
<line class="st0" x1="337.9" y1="226.9" x2="369.9" y2="226.9"/>
<line class="st0" x1="369.5" y1="228" x2="338.3" y2="228"/>
<line class="st0" x1="338.7" y1="230.2" x2="369.1" y2="230.2"/>
<line class="st0" x1="369.1" y1="231.2" x2="338.7" y2="231.2"/>
<line class="st0" x1="338.7" y1="232.8" x2="369.1" y2="232.8"/>
<line class="st0" x1="369.1" y1="234.1" x2="338.7" y2="234.1"/>
<path class="st0" d="M358.2,136.3h-2.8l-0.1-2l-7-0.1l-7,0.1l-0.1,2h-2.8l-0.1-1.9H338l0-0.6l-0.6-0.7l0-0.8h0.9l-0.2-28.8h0.3v-0.4
	h-0.3l0.1-2H338l-0.5-0.6l0.1-1.3h-0.6l0-0.8l-1-1.9h24.8l-1,1.9l0,0.8h-0.6l0.1,1.3l-0.5,0.6h-0.3l0.1,2h-0.3v0.4h0.3l-0.2,28.8
	h0.9l0,0.8l-0.6,0.7l0,0.6h-0.4L358.2,136.3z M355.6,136.1h2.3l0.1-1.9h0.4l0-0.5l0.6-0.7l0-0.5h-0.9l0.2-28.8H358V103h0.3l-0.1-2
	h0.5l0.4-0.4l-0.1-1.5h0.6l0-0.6l0.9-1.6h-24.1l0.9,1.6l0,0.6h0.6l-0.1,1.5l0.4,0.4h0.5l-0.1,2h0.3v0.8h-0.3l0.2,28.8h-0.9l0,0.5
	l0.6,0.7l0,0.5h0.4l0.1,1.9h2.3l0.1-2l7.2-0.1l7.2,0.1L355.6,136.1z"/>
<path class="st0" d="M355.2,131.9h-13.7l0-0.5h-0.3l0-0.1l-0.2-29h0.3v-0.6h14.3v0.6h0.3l-0.2,29.1h-0.3L355.2,131.9z M341.7,131.7
	H355l0-0.5h0.3l0.2-28.7h-0.3v-0.6h-13.9v0.6h-0.3l0.2,28.7h0.3L341.7,131.7z"/>
<path class="st0" d="M404.1,198.4h-2.8l-0.1-2l-7-0.1l-7,0.1l-0.1,2h-2.8l-0.1-1.9h-0.4l0-0.6l-0.6-0.7l0-0.8h0.9l-0.2-28.8h0.3
	v-0.4h-0.3l0.1-2h-0.3l-0.5-0.6l0.1-1.3h-0.6l0-0.8l-1-1.9h24.8l-1,1.9l0,0.8h-0.6l0.1,1.3l-0.5,0.6h-0.3l0.1,2h-0.3v0.4h0.3
	l-0.2,28.8h0.9l0,0.8l-0.6,0.7l0,0.6h-0.4L404.1,198.4z M401.6,198.2h2.3l0.1-1.9h0.4l0-0.5l0.6-0.7l0-0.5h-0.9l0.2-28.8H404v-0.8
	h0.3l-0.1-2h0.5l0.4-0.4l-0.1-1.5h0.6l0-0.6l0.9-1.6h-24.1l0.9,1.6l0,0.6h0.6l-0.1,1.5l0.4,0.4h0.5l-0.1,2h0.3v0.8h-0.3l0.2,28.8
	h-0.9l0,0.5l0.6,0.7l0,0.5h0.4l0.1,1.9h2.3l0.1-2l7.2-0.1l7.2,0.1L401.6,198.2z"/>
<path class="st0" d="M401.2,194.7h-13.7l0-0.5h-0.3l0-0.1l-0.2-29h0.3v-0.6h14.3v0.6h0.3l-0.2,29.1h-0.3L401.2,194.7z M387.6,194.5
	H401l0-0.5h0.3l0.2-28.7h-0.3v-0.6h-13.9v0.6h-0.3l0.2,28.7h0.3L387.6,194.5z"/>
<path class="st0" d="M384.9,136.4h-2.8l-0.1-2l-7-0.1l-7,0.1l-0.1,2h-2.8l-0.1-1.9h-0.4l0-0.6l-0.6-0.7l0-0.8h0.9l-0.2-28.8h0.3
	v-0.4h-0.3l0.1-2h-0.3l-0.5-0.6l0.1-1.3h-0.6l0-0.8l-1-1.9h24.8l-1,1.9l0,0.8h-0.6l0.1,1.3l-0.5,0.6h-0.3l0.1,2H385v0.4h0.3
	l-0.2,28.8h0.9l0,0.8l-0.6,0.7l0,0.6h-0.4L384.9,136.4z M382.4,136.2h2.3l0.1-1.9h0.4l0-0.5l0.6-0.7l0-0.5h-0.9l0.2-28.8h-0.3v-0.8
	h0.3l-0.1-2h0.5l0.4-0.4l-0.1-1.5h0.6l0-0.6l0.9-1.6h-24.1l0.9,1.6l0,0.6h0.6l-0.1,1.5l0.4,0.4h0.5l-0.1,2h0.3v0.8h-0.3l0.2,28.8
	h-0.9l0,0.5l0.6,0.7l0,0.5h0.4l0.1,1.9h2.3l0.1-2l7.2-0.1l7.2,0.1L382.4,136.2z"/>
<path class="st0" d="M382,131.7h-13.7l0-0.5h-0.3l0-0.1l-0.2-29h0.3v-0.6h14.3v0.6h0.3l-0.2,29.1H382L382,131.7z M368.4,131.5h13.3
	l0-0.5h0.3l0.2-28.7h-0.3v-0.6h-13.9v0.6h-0.3l0.2,28.7h0.3L368.4,131.5z"/>
<path class="st0" d="M412.1,136.3h-2.8l-0.1-2l-7-0.1l-7,0.1l-0.1,2h-2.8l-0.1-1.9h-0.4l0-0.6l-0.6-0.7l0-0.8h0.9l-0.2-28.8h0.3
	v-0.4h-0.3l0.1-2h-0.3l-0.5-0.6l0.1-1.3h-0.6l0-0.8l-1-1.9h24.8l-1,1.9l0,0.8h-0.6l0.1,1.3l-0.5,0.6h-0.3l0.1,2h-0.3v0.4h0.3
	l-0.2,28.8h0.9l0,0.8l-0.6,0.7l0,0.6h-0.4L412.1,136.3z M409.6,136.1h2.3l0.1-1.9h0.4l0-0.5l0.6-0.7l0-0.5h-0.9l0.2-28.8H412V103
	h0.3l-0.1-2h0.5l0.4-0.4l-0.1-1.5h0.6l0-0.6l0.9-1.6h-24.1l0.9,1.6l0,0.6h0.6l-0.1,1.5l0.4,0.4h0.5l-0.1,2h0.3v0.8h-0.3l0.2,28.8
	h-0.9l0,0.5l0.6,0.7l0,0.5h0.4l0.1,1.9h2.3l0.1-2l7.2-0.1l7.2,0.1L409.6,136.1z"/>
<path class="st0" d="M409.2,131.7h-13.7l0-0.5H395l0-0.1l-0.2-29h0.3v-0.6h14.3v0.6h0.3l-0.2,29.1h-0.3L409.2,131.7z M395.6,131.5
	H409l0-0.5h0.3l0.2-28.7h-0.3v-0.6h-13.9v0.6h-0.3l0.2,28.7h0.3L395.6,131.5z"/>
<path class="st0" d="M358.2,82.9h-2.8l-0.1-2l-7-0.1l-7,0.1l-0.1,2h-2.8l-0.1-1.9H338l0-0.6l-0.6-0.7l0-0.8h0.9l-0.2-28.8h0.3v-0.4
	h-0.3l0.1-2H338l-0.5-0.6l0.1-1.3h-0.6l0-0.8l-1-1.9h24.8l-1,1.9l0,0.8h-0.6l0.1,1.3l-0.5,0.6h-0.3l0.1,2h-0.3v0.4h0.3l-0.2,28.8
	h0.9l0,0.8l-0.6,0.7l0,0.6h-0.4L358.2,82.9z M355.6,82.7h2.3l0.1-1.9h0.4l0-0.5l0.6-0.7l0-0.5h-0.9l0.2-28.8H358v-0.8h0.3l-0.1-2
	h0.5l0.4-0.4l-0.1-1.5h0.6l0-0.6l0.9-1.6h-24.1l0.9,1.6l0,0.6h0.6l-0.1,1.5l0.4,0.4h0.5l-0.1,2h0.3v0.8h-0.3l0.2,28.8h-0.9l0,0.5
	l0.6,0.7l0,0.5h0.4l0.1,1.9h2.3l0.1-2l7.2-0.1l7.2,0.1L355.6,82.7z"/>
<path class="st0" d="M355.2,78.5h-13.7l0-0.5h-0.3l0-0.1l-0.2-29h0.3v-0.6h14.3v0.6h0.3L355.6,78h-0.3L355.2,78.5z M341.7,78.3H355
	l0-0.5h0.3l0.2-28.7h-0.3v-0.6h-13.9v0.6h-0.3l0.2,28.7h0.3L341.7,78.3z"/>
<path class="st0" d="M384.9,83h-2.8l-0.1-2l-7-0.1l-7,0.1l-0.1,2h-2.8l-0.1-1.9h-0.4l0-0.6l-0.6-0.7l0-0.8h0.9l-0.2-28.8h0.3v-0.4
	h-0.3l0.1-2h-0.3l-0.5-0.6l0.1-1.3h-0.6l0-0.8l-1-1.9h24.8l-1,1.9l0,0.8h-0.6l0.1,1.3l-0.5,0.6h-0.3l0.1,2H385v0.4h0.3L385.1,79h0.9
	l0,0.8l-0.6,0.7l0,0.6h-0.4L384.9,83z M382.4,82.8h2.3l0.1-1.9h0.4l0-0.5l0.6-0.7l0-0.5h-0.9l0.2-28.8h-0.3v-0.8h0.3l-0.1-2h0.5
	l0.4-0.4l-0.1-1.5h0.6l0-0.6l0.9-1.6h-24.1l0.9,1.6l0,0.6h0.6l-0.1,1.5l0.4,0.4h0.5l-0.1,2h0.3v0.8h-0.3l0.2,28.8h-0.9l0,0.5
	l0.6,0.7l0,0.5h0.4l0.1,1.9h2.3l0.1-2l7.2-0.1l7.2,0.1L382.4,82.8z"/>
<path class="st0" d="M382,78.3h-13.7l0-0.5h-0.3l0-0.1l-0.2-29h0.3v-0.6h14.3v0.6h0.3l-0.2,29.1H382L382,78.3z M368.4,78.1h13.3
	l0-0.5h0.3l0.2-28.7h-0.3v-0.6h-13.9v0.6h-0.3l0.2,28.7h0.3L368.4,78.1z"/>
<path class="st0" d="M412.1,82.9h-2.8l-0.1-2l-7-0.1l-7,0.1l-0.1,2h-2.8l-0.1-1.9h-0.4l0-0.6l-0.6-0.7l0-0.8h0.9l-0.2-28.8h0.3v-0.4
	h-0.3l0.1-2h-0.3l-0.5-0.6l0.1-1.3h-0.6l0-0.8l-1-1.9h24.8l-1,1.9l0,0.8h-0.6l0.1,1.3l-0.5,0.6h-0.3l0.1,2h-0.3v0.4h0.3l-0.2,28.8
	h0.9l0,0.8l-0.6,0.7l0,0.6h-0.4L412.1,82.9z M409.6,82.7h2.3l0.1-1.9h0.4l0-0.5l0.6-0.7l0-0.5h-0.9l0.2-28.8H412v-0.8h0.3l-0.1-2
	h0.5l0.4-0.4l-0.1-1.5h0.6l0-0.6l0.9-1.6h-24.1l0.9,1.6l0,0.6h0.6l-0.1,1.5l0.4,0.4h0.5l-0.1,2h0.3v0.8h-0.3l0.2,28.8h-0.9l0,0.5
	l0.6,0.7l0,0.5h0.4l0.1,1.9h2.3l0.1-2l7.2-0.1l7.2,0.1L409.6,82.7z"/>
<path class="st0" d="M409.2,78.3h-13.7l0-0.5H395l0-0.1l-0.2-29h0.3v-0.6h14.3v0.6h0.3l-0.2,29.1h-0.3L409.2,78.3z M395.6,78.1H409
	l0-0.5h0.3l0.2-28.7h-0.3v-0.6h-13.9v0.6h-0.3l0.2,28.7h0.3L395.6,78.1z"/>
<polygon class="st0" points="416.9,0.5 499.5,0.5 499.5,236.6 416.9,236.6 416.9,1.8 "/>
<polyline class="st0" points="416.9,1.5 418,4.1 418,5.6 418.5,8 420.3,10.6 420.3,17 420.3,24 418.6,24 418.6,25.1 419.7,27.7 
	458.2,27.7 "/>
<polyline class="st0" points="499.5,1.5 498.4,4.1 498.4,5.6 498,8 496.1,10.6 496.1,17 496.1,24 497.8,24 497.8,25.1 496.7,27.7 
	458.2,27.7 "/>
<polygon class="st0" points="418,5.6 498.4,5.6 498,8 418.5,8 "/>
<polygon class="st0" points="438.1,8.3 441.2,8.3 440,10.6 440,25.4 439,26.1 439,27.1 438.1,27.1 437.1,27.1 437.1,26.1 
	436.1,25.4 436.1,10.6 434.9,8.3 "/>
<polyline class="st0" points="426.4,8 424.7,10.6 424.7,25.4 423.5,26.3 423.5,27.1 421.5,27.1 421.5,26.1 420.2,24.8 420.3,24 "/>
<polyline class="st0" points="490,7.7 491.7,10.4 491.7,25.2 492.9,26.1 492.9,26.9 494.9,26.9 494.9,25.9 496.2,24.6 496.1,23.7 
	"/>
<polygon class="st0" points="445.7,8.3 448.9,8.3 447.6,10.6 447.6,25.4 446.6,26.1 446.6,27.1 445.7,27.1 444.7,27.1 444.7,26.1 
	443.8,25.4 443.8,10.6 442.5,8.3 "/>
<polygon class="st0" points="465.7,8.3 468.9,8.3 467.6,10.6 467.6,25.4 466.6,26.1 466.6,27.1 465.7,27.1 464.7,27.1 464.7,26.1 
	463.7,25.4 463.7,10.6 462.5,8.3 "/>
<polygon class="st0" points="473.2,8.3 476.4,8.3 475.1,10.6 475.1,25.4 474.2,26.1 474.2,27.1 473.2,27.1 472.3,27.1 472.3,26.1 
	471.3,25.4 471.3,10.6 470,8.3 "/>
<polygon class="st0" points="437.5,204.9 454.1,204.9 453.8,202.3 453.1,201.9 453.2,195.9 454.2,195.9 454.1,195 452.9,192.8 
	453.1,166.3 454.5,166.3 454.5,161.9 453,161.9 453,161.1 453.7,160.1 453.8,159.6 453.2,159.6 453.3,156 454.2,154.7 455.1,154.7 
	456.1,151.1 437.5,151.1 418.8,151.1 419.9,154.7 420.8,154.7 421.6,156 421.8,159.6 421.2,159.6 421.3,160.1 421.9,161.1 
	421.9,161.9 420.5,161.9 420.5,166.3 421.9,166.3 422.1,192.8 420.8,195 420.8,195.9 421.7,195.9 421.9,201.9 421.1,202.3 
	420.9,204.9 "/>
<polyline class="st0" points="437.5,162 427.5,162 427.5,166 426.4,166 426.4,192.9 428.1,195.6 426.9,195.6 426.9,201.7 
	427.5,202.3 427.5,204.9 437.5,204.9 "/>
<polyline class="st0" points="437.5,162 447.5,162 447.5,166 448.6,166 448.6,192.9 446.8,195.6 448.1,195.6 448.1,201.7 
	447.5,202.3 447.5,204.9 437.5,204.9 "/>
<rect x="423.2" y="156.1" class="st0" width="28.1" height="2.6"/>
<polyline class="st0" points="454.1,205.1 454.1,205.8 453.7,205.8 453.7,206.9 454.1,206.9 454.1,207.5 453.7,207.5 453.7,209.1 
	454.7,209.1 454.7,209.9 462.8,209.9 462.8,210.9 461.8,211.9 461.8,213.4 461.2,213.4 461.2,214.4 461.9,215.3 461,215.3 
	461,228.2 462.2,228.2 462.1,228.9 462,228.9 462,229.5 462.8,230.5 462.8,236.5 437.5,236.5 "/>
<polyline class="st0" points="420.9,205.1 420.9,205.8 421.3,205.8 420.9,206.9 420.9,207.5 421.3,207.5 421.3,209.1 420.3,209.1 
	420.3,209.9 412.1,209.9 412.1,210.9 413.2,211.9 413.1,213.4 413.7,213.4 413.7,214.4 413.1,215.3 413.9,215.3 413.9,228.2 
	412.8,228.2 412.8,228.9 413,228.9 412.9,229.5 412.1,230.5 412.1,236.5 437.5,236.5 "/>
<path class="st0" d="M453.7,206.9"/>
<line class="st0" x1="420.9" y1="206.9" x2="453.7" y2="206.9"/>
<line class="st0" x1="453.7" y1="207.5" x2="421.3" y2="207.5"/>
<line class="st0" x1="453.7" y1="209.1" x2="421.3" y2="209.1"/>
<polyline class="st0" points="420.3,209.9 422.6,209.9 454.7,209.9 "/>
<polyline class="st0" points="422.6,209.9 422.6,211.4 421.6,212.1 421.6,213.3 420.9,214.1 421.7,215.2 420.9,215.2 421.3,228 
	421.7,228 421.7,228.8 421.3,228.8 422.1,230.2 422,236.5 "/>
<polyline class="st0" points="452,209.9 452,211.4 453,212.1 453,213.3 453.7,214.1 452.8,215.2 453.7,215.2 453.3,228 452.8,228 
	452.8,228.8 453.3,228.8 452.5,230.2 452.5,236.5 "/>
<line class="st0" x1="421.3" y1="214.7" x2="453.3" y2="214.7"/>
<line class="st0" x1="453.7" y1="214.1" x2="420.9" y2="214.1"/>
<line class="st0" x1="421.6" y1="212.1" x2="453" y2="212.1"/>
<line class="st0" x1="452" y1="211.4" x2="422.6" y2="211.4"/>
<line class="st0" x1="420.9" y1="217.1" x2="453.6" y2="217.1"/>
<line class="st0" x1="453.6" y1="216.4" x2="420.9" y2="216.4"/>
<line class="st0" x1="421" y1="219.7" x2="453.6" y2="219.7"/>
<line class="st0" x1="453.6" y1="219" x2="420.9" y2="219"/>
<line class="st0" x1="421.3" y1="222.3" x2="453.5" y2="222.3"/>
<line class="st0" x1="453.5" y1="221.6" x2="420.9" y2="221.4"/>
<line class="st0" x1="421.3" y1="225.1" x2="453.3" y2="225.1"/>
<line class="st0" x1="453.4" y1="224.5" x2="421.2" y2="224.2"/>
<line class="st0" x1="421.3" y1="226.9" x2="453.3" y2="226.9"/>
<line class="st0" x1="452.8" y1="228" x2="421.7" y2="228"/>
<line class="st0" x1="422.1" y1="230.2" x2="452.5" y2="230.2"/>
<line class="st0" x1="452.5" y1="231.2" x2="422.1" y2="231.2"/>
<line class="st0" x1="422.1" y1="232.8" x2="452.5" y2="232.8"/>
<line class="st0" x1="452.5" y1="234.1" x2="422.1" y2="234.1"/>
<path class="st0" d="M441.6,136.3h-2.8l-0.1-2l-7-0.1l-7,0.1l-0.1,2h-2.8l-0.1-1.9h-0.4l0-0.6l-0.6-0.7l0-0.8h0.9l-0.2-28.8h0.3
	v-0.4h-0.3l0.1-2h-0.3l-0.5-0.6l0.1-1.3h-0.6l0-0.8l-1-1.9h24.8l-1,1.9l0,0.8h-0.6l0.1,1.3l-0.5,0.6h-0.3l0.1,2h-0.3v0.4h0.3
	l-0.2,28.8h0.9l0,0.8l-0.6,0.7l0,0.6h-0.4L441.6,136.3z M439,136.1h2.3l0.1-1.9h0.4l0-0.5l0.6-0.7l0-0.5h-0.9l0.2-28.8h-0.3V103h0.3
	l-0.1-2h0.5l0.4-0.4l-0.1-1.5h0.6l0-0.6l0.9-1.6h-24.1l0.9,1.6l0,0.6h0.6l-0.1,1.5l0.4,0.4h0.5l-0.1,2h0.3v0.8h-0.3l0.2,28.8H421
	l0,0.5l0.6,0.7l0,0.5h0.4l0.1,1.9h2.3l0.1-2l7.2-0.1l7.2,0.1L439,136.1z"/>
<path class="st0" d="M438.6,131.9h-13.7l0-0.5h-0.3l0-0.1l-0.2-29h0.3v-0.6h14.3v0.6h0.3l-0.2,29.1h-0.3L438.6,131.9z M425.1,131.7
	h13.3l0-0.5h0.3l0.2-28.7h-0.3v-0.6h-13.9v0.6h-0.3l0.2,28.7h0.3L425.1,131.7z"/>
<path class="st0" d="M487.5,198.4h-2.8l-0.1-2l-7-0.1l-7,0.1l-0.1,2h-2.8l-0.1-1.9h-0.4l0-0.6l-0.6-0.7l0-0.8h0.9l-0.2-28.8h0.3
	v-0.4h-0.3l0.1-2h-0.3l-0.5-0.6l0.1-1.3h-0.6l0-0.8l-1-1.9h24.8l-1,1.9l0,0.8h-0.6l0.1,1.3l-0.5,0.6h-0.3l0.1,2h-0.3v0.4h0.3
	l-0.2,28.8h0.9l0,0.8l-0.6,0.7l0,0.6h-0.4L487.5,198.4z M485,198.2h2.3l0.1-1.9h0.4l0-0.5l0.6-0.7l0-0.5h-0.9l0.2-28.8h-0.3v-0.8
	h0.3l-0.1-2h0.5l0.4-0.4l-0.1-1.5h0.6l0-0.6l0.9-1.6h-24.1l0.9,1.6l0,0.6h0.6l-0.1,1.5l0.4,0.4h0.5l-0.1,2h0.3v0.8h-0.3l0.2,28.8
	H467l0,0.5l0.6,0.7l0,0.5h0.4l0.1,1.9h2.3l0.1-2l7.2-0.1l7.2,0.1L485,198.2z"/>
<path class="st0" d="M484.5,194.7h-13.7l0-0.5h-0.3l0-0.1l-0.2-29h0.3v-0.6h14.3v0.6h0.3l-0.2,29.1h-0.3L484.5,194.7z M471,194.5
	h13.3l0-0.5h0.3l0.2-28.7h-0.3v-0.6h-13.9v0.6h-0.3l0.2,28.7h0.3L471,194.5z"/>
<path class="st0" d="M468.3,136.4h-2.8l-0.1-2l-7-0.1l-7,0.1l-0.1,2h-2.8l-0.1-1.9h-0.4l0-0.6l-0.6-0.7l0-0.8h0.9l-0.2-28.8h0.3
	v-0.4h-0.3l0.1-2h-0.3l-0.5-0.6l0.1-1.3H447l0-0.8l-1-1.9h24.8l-1,1.9l0,0.8h-0.6l0.1,1.3l-0.5,0.6h-0.3l0.1,2h-0.3v0.4h0.3
	l-0.2,28.8h0.9l0,0.8l-0.6,0.7l0,0.6h-0.4L468.3,136.4z M465.8,136.2h2.3l0.1-1.9h0.4l0-0.5l0.6-0.7l0-0.5h-0.9l0.2-28.8h-0.3v-0.8
	h0.3l-0.1-2h0.5l0.4-0.4l-0.1-1.5h0.6l0-0.6l0.9-1.6h-24.1l0.9,1.6l0,0.6h0.6l-0.1,1.5l0.4,0.4h0.5l-0.1,2h0.3v0.8h-0.3l0.2,28.8
	h-0.9l0,0.5l0.6,0.7l0,0.5h0.4l0.1,1.9h2.3l0.1-2l7.2-0.1l7.2,0.1L465.8,136.2z"/>
<path class="st0" d="M465.4,131.7h-13.7l0-0.5h-0.3l0-0.1l-0.2-29h0.3v-0.6h14.3v0.6h0.3l-0.2,29.1h-0.3L465.4,131.7z M451.8,131.5
	h13.3l0-0.5h0.3l0.2-28.7h-0.3v-0.6h-13.9v0.6h-0.3l0.2,28.7h0.3L451.8,131.5z"/>
<path class="st0" d="M495.5,136.3h-2.8l-0.1-2l-7-0.1l-7,0.1l-0.1,2h-2.8l-0.1-1.9h-0.4l0-0.6l-0.6-0.7l0-0.8h0.9l-0.2-28.8h0.3
	v-0.4h-0.3l0.1-2h-0.3l-0.5-0.6l0.1-1.3h-0.6l0-0.8l-1-1.9h24.8l-1,1.9l0,0.8h-0.6l0.1,1.3l-0.5,0.6h-0.3l0.1,2h-0.3v0.4h0.3
	l-0.2,28.8h0.9l0,0.8l-0.6,0.7l0,0.6h-0.4L495.5,136.3z M493,136.1h2.3l0.1-1.9h0.4l0-0.5l0.6-0.7l0-0.5h-0.9l0.2-28.8h-0.3V103h0.3
	l-0.1-2h0.5l0.4-0.4l-0.1-1.5h0.6l0-0.6l0.9-1.6h-24.1l0.9,1.6l0,0.6h0.6l-0.1,1.5l0.4,0.4h0.5l-0.1,2h0.3v0.8h-0.3l0.2,28.8H475
	l0,0.5l0.6,0.7l0,0.5h0.4l0.1,1.9h2.3l0.1-2l7.2-0.1l7.2,0.1L493,136.1z"/>
<path class="st0" d="M492.5,131.7h-13.7l0-0.5h-0.3l0-0.1l-0.2-29h0.3v-0.6h14.3v0.6h0.3l-0.2,29.1h-0.3L492.5,131.7z M479,131.5
	h13.3l0-0.5h0.3l0.2-28.7h-0.3v-0.6h-13.9v0.6h-0.3l0.2,28.7h0.3L479,131.5z"/>
<path class="st0" d="M441.6,82.9h-2.8l-0.1-2l-7-0.1l-7,0.1l-0.1,2h-2.8l-0.1-1.9h-0.4l0-0.6l-0.6-0.7l0-0.8h0.9l-0.2-28.8h0.3v-0.4
	h-0.3l0.1-2h-0.3l-0.5-0.6l0.1-1.3h-0.6l0-0.8l-1-1.9h24.8l-1,1.9l0,0.8h-0.6l0.1,1.3l-0.5,0.6h-0.3l0.1,2h-0.3v0.4h0.3l-0.2,28.8
	h0.9l0,0.8l-0.6,0.7l0,0.6h-0.4L441.6,82.9z M439,82.7h2.3l0.1-1.9h0.4l0-0.5l0.6-0.7l0-0.5h-0.9l0.2-28.8h-0.3v-0.8h0.3l-0.1-2h0.5
	l0.4-0.4l-0.1-1.5h0.6l0-0.6l0.9-1.6h-24.1l0.9,1.6l0,0.6h0.6l-0.1,1.5l0.4,0.4h0.5l-0.1,2h0.3v0.8h-0.3l0.2,28.8H421l0,0.5l0.6,0.7
	l0,0.5h0.4l0.1,1.9h2.3l0.1-2l7.2-0.1l7.2,0.1L439,82.7z"/>
<path class="st0" d="M438.6,78.5h-13.7l0-0.5h-0.3l0-0.1l-0.2-29h0.3v-0.6h14.3v0.6h0.3L439,78h-0.3L438.6,78.5z M425.1,78.3h13.3
	l0-0.5h0.3l0.2-28.7h-0.3v-0.6h-13.9v0.6h-0.3l0.2,28.7h0.3L425.1,78.3z"/>
<path class="st0" d="M468.3,83h-2.8l-0.1-2l-7-0.1l-7,0.1l-0.1,2h-2.8l-0.1-1.9h-0.4l0-0.6l-0.6-0.7l0-0.8h0.9l-0.2-28.8h0.3v-0.4
	h-0.3l0.1-2h-0.3l-0.5-0.6l0.1-1.3H447l0-0.8l-1-1.9h24.8l-1,1.9l0,0.8h-0.6l0.1,1.3l-0.5,0.6h-0.3l0.1,2h-0.3v0.4h0.3L468.5,79h0.9
	l0,0.8l-0.6,0.7l0,0.6h-0.4L468.3,83z M465.8,82.8h2.3l0.1-1.9h0.4l0-0.5l0.6-0.7l0-0.5h-0.9l0.2-28.8h-0.3v-0.8h0.3l-0.1-2h0.5
	l0.4-0.4l-0.1-1.5h0.6l0-0.6l0.9-1.6h-24.1l0.9,1.6l0,0.6h0.6l-0.1,1.5l0.4,0.4h0.5l-0.1,2h0.3v0.8h-0.3l0.2,28.8h-0.9l0,0.5
	l0.6,0.7l0,0.5h0.4l0.1,1.9h2.3l0.1-2l7.2-0.1l7.2,0.1L465.8,82.8z"/>
<path class="st0" d="M465.4,78.3h-13.7l0-0.5h-0.3l0-0.1l-0.2-29h0.3v-0.6h14.3v0.6h0.3l-0.2,29.1h-0.3L465.4,78.3z M451.8,78.1
	h13.3l0-0.5h0.3l0.2-28.7h-0.3v-0.6h-13.9v0.6h-0.3l0.2,28.7h0.3L451.8,78.1z"/>
<path class="st0" d="M495.5,82.9h-2.8l-0.1-2l-7-0.1l-7,0.1l-0.1,2h-2.8l-0.1-1.9h-0.4l0-0.6l-0.6-0.7l0-0.8h0.9l-0.2-28.8h0.3v-0.4
	h-0.3l0.1-2h-0.3l-0.5-0.6l0.1-1.3h-0.6l0-0.8l-1-1.9h24.8l-1,1.9l0,0.8h-0.6l0.1,1.3l-0.5,0.6h-0.3l0.1,2h-0.3v0.4h0.3l-0.2,28.8
	h0.9l0,0.8l-0.6,0.7l0,0.6h-0.4L495.5,82.9z M493,82.7h2.3l0.1-1.9h0.4l0-0.5l0.6-0.7l0-0.5h-0.9l0.2-28.8h-0.3v-0.8h0.3l-0.1-2h0.5
	l0.4-0.4l-0.1-1.5h0.6l0-0.6l0.9-1.6h-24.1l0.9,1.6l0,0.6h0.6l-0.1,1.5l0.4,0.4h0.5l-0.1,2h0.3v0.8h-0.3l0.2,28.8H475l0,0.5l0.6,0.7
	l0,0.5h0.4l0.1,1.9h2.3l0.1-2l7.2-0.1l7.2,0.1L493,82.7z"/>
<path class="st0" d="M492.5,78.3h-13.7l0-0.5h-0.3l0-0.1l-0.2-29h0.3v-0.6h14.3v0.6h0.3l-0.2,29.1h-0.3L492.5,78.3z M479,78.1h13.3
	l0-0.5h0.3l0.2-28.7h-0.3v-0.6h-13.9v0.6h-0.3l0.2,28.7h0.3L479,78.1z"/>
<line class="st1" x1="50.5" y1="236.6" x2="50.5" y2="250.4"/>
<line class="st1" x1="110.4" y1="236.6" x2="110.4" y2="250.4"/>
<line class="st1" x1="174.3" y1="236.6" x2="174.3" y2="250.4"/>
<line class="st1" x1="236.3" y1="236.6" x2="236.3" y2="250.4"/>
<line class="st1" x1="294.2" y1="236.6" x2="294.2" y2="250.4"/>
<line class="st1" x1="350.2" y1="236.6" x2="350.2" y2="250.4"/>
<line class="st1" x1="408.1" y1="236.6" x2="408.1" y2="250.4"/>
<line class="st1" x1="472.1" y1="236.6" x2="472.1" y2="250.4"/>
<line class="st1" x1="0.4" y1="250.5" x2="500.4" y2="250.5"/>
</svg>
