<?xml version="1.0" encoding="utf-8"?>
<!-- Generator: Adobe Illustrator 19.2.1, SVG Export Plug-In . SVG Version: 6.00 Build 0)  -->
<svg version="1.1" id="Layer_1" xmlns="http://www.w3.org/2000/svg" xmlns:xlink="http://www.w3.org/1999/xlink" x="0px" y="0px"
	 viewBox="0 0 2401 1225" style="enable-background:new 0 0 2401 1225;" xml:space="preserve">
<style type="text/css">
	.st0{fill:#512721;}
	.st1{fill:#FFFFFF;stroke:#000000;stroke-width:3;stroke-miterlimit:10;}
	.st2{fill:#FFFFFF;stroke:#020202;stroke-width:3;stroke-miterlimit:10;}
	.st3{font-family:'MyriadPro-Regular';}
	.st4{font-size:32.005px;}
</style>
<path class="st0" d="M468.5,991.2"/>
<path class="st1" d="M654.4,1224.5c0.7,0.6-85.3-7-85.3-7s17.5-187.8,31.3-195.3c13.8-7.6,21.1-114.5,8-120.3
	c-13.1-5.8-39.4-52.9-39.4-52.9l-48.8-65.1c0,0-27.7-81.4-31.3-108.7s11.7,0,11.7,0s23.3,73.3,33.5,80.8
	c10.2,7.6,61.2,76.2,61.2,76.2s12.4,18.6,19,22.7c6.6,4.1,5.8-15.7,5.8-15.7S593.9,760,591,750.1s-7.3-72.1,3.6-92.4
	c10.9-20.3,25.5-44.2,25.5-58.1c0-14,13.1-8.7,13.8-2.9c0.7,5.8,0,12.2,0,12.2l62-52.3l3.6,11c0,0-16.8,10.5-33.5,27.3
	s-43.7,52.3-43.7,62.8s-6.6,69.2,12.4,119.8C653.6,828,650,828,650,828l2.9,7l8-25.6l8.7-14.5c0,0,12.4-13.4,16-14
	c3.6-0.6,24.1-9.9,24.1-9.9s21.1-12.8,21.9-34.3c0.7-21.5-8-65.7-21.9-86.6c-13.8-20.9-2.2-75-2.2-75l13.8-0.6
	c0,0,2.2,80.2,14.6,91.9c12.4,11.6,16-6.4,16-6.4s13.8-27.9,45.2-43c31.3-15.1,41.5-22.1,41.5-22.1l19,4.1l-14.6,20.3l-23.3,14
	l-35,30.8l-19.7,23.8l-13.1,8.1l2.9,17.4l2.2,24.4h16c0,0,117.4-65.1,129.7-82c12.4-16.9,32.8-34.9,32.8-34.9l15.3-1.2v7.6l-5.1,8.1
	c0,0-46.6,47.1-79.4,65.1s-121.7,75.6-127.6,76.7c-5.8,1.2-70,47.1-64.1,98.8c5.8,51.7-2.9,69.8-2.9,69.8l-3.6,52.3L654.4,1224.5z"
	/>
<path class="st2" d="M431.3,722.1c0,0,7.6-26.7-44.3-15.1c-51.9,11.6-58.5,72.1-58.5,72.1h-10.9v-54.6l-17.5,4.7
	c0,0-14.6,44.2-20.4,50s-16,31.4-16,31.4l-17.5,8.1c0,0,5.8-30.2,0-30.2c-5.8,0-42.3,1.2-42.3,1.2s-19-3.5-29.2,3.5s-10.2,7-10.2,7
	s-39.4-24.4-43.7-24.4s-27.7,2.3-36.4,2.3S78.5,743,61,738.4c-17.5-4.7-39.4-10.5-32.1-8.1c7.3,2.3-14.6-7-14.6-15.1
	c0-8.1,7.3-30.2,10.2-37.2s0-46.5,0-46.5L74.1,614l39.4-31.4L93,558.2l-71.4-24.4c0,0-7.3-61.6-1.5-69.8s35-43,35-43l46.6-22.1
	l12-10.2l-12-22.3c0,0-17.3-23.4-17.3-26.6c0-3.2-10.7-58.5-10.7-58.5s-20-70.2,4-101.1s73.4-51.1,73.4-51.1s-4-8.5,0-13.8
	s20-17,20-17h34.7c0,0,30.7-1.1,34.7,0s49.4-0.5,49.4-0.5l57.4-36.8L398,41.7c0,0,48-50,190.8-44.7s117.9,5.3,137,17
	c19.1,11.7,31.1-7.4,45.8-7.4c14.7,0,70.7-10,70.7-10l53.4-8.1l12,20.2l40,30.9c0,0-4,44.7,32,44.7c36,0,38.7,17,38.7,17l-12,20.2
	l-2.7,17l28,20.2l12,5.3c0,0,4-2.1,18.7,0c14.7,2.1,4,2.1,14.7,2.1c10.7,0,18.7,1.1,18.7,6.4c0,5.3,42.7,37.2,42.7,37.2
	s52,44.7,56,67c4,22.3,25.3,19.2,25.3,19.2l30.7-9.6c0,0,10.7,8.5,16,11.7s32,9.6,32,9.6s6.7-11.7,24,3.2
	c17.3,14.9,38.7,48.9,30.7,61.7s-56,46.8-56,46.8l-36,29.8l-13.3,26.6c0,0-20,29.8,22.7,57.5c42.7,27.7,18.7,154.3-5.3,168.1
	s-89.4,64.8-138.7,59c-49.4-5.8-120.1-42-120.1-42l-16-27.7l-16-17l-30.7-2.1c0,0-5.3,7.4-13.3,16c-8,8.5-26.7,13.8-33.4,13.8
	s-28,1.1-28,1.1l-1.3,18.1c0,0,9.3,20.2-4,18.1c-13.3-2.1-26.7-7.4-30.7-10.6s-18.7-16-18.7-16l-17.3-10.6l-50.7-43.6l-14.7-6.4
	l-46.9,20.2c0,0-25.2,8.5-31.8,1.1c-6.7-7.4-18.7-22.3-18.7-22.3l-46.7,6.4c0,0-4-6.4-14.7-10.6s-49.4-11.7-49.4-11.7
	s-14.7,22.3-14.7,27.7s6.7,22.3,0,34c-6.7,11.7-52,35.1-52,35.1L431.3,722.1z"/>
<path class="st1" d="M2176.7,686.7h-10.1c-1.7,0-3,1.3-3,3v530.2c0,1.7,1.3,3,3,3h10.1c1.7,0,3-1.3,3-3V689.7
	C2179.7,688.1,2178.3,686.7,2176.7,686.7z"/>
<rect x="2163.6" y="694.9" class="st1" width="216.7" height="93.2"/>
<text transform="matrix(1.0156 0 0 1 2195.3396 730.1637)"><tspan x="0" y="0" class="st3 st4">NO</tspan><tspan x="0" y="38.4" class="st3 st4">PARKING</tspan></text>
</svg>
